<svg xmlns="http://www.w3.org/2000/svg" xmlns:xlink="http://www.w3.org/1999/xlink" width="500" zoomAndPan="magnify" viewBox="0 0 375 374.999991" height="500" preserveAspectRatio="xMidYMid meet" version="1.0"><defs><g/><clipPath id="6e98e4d276"><path d="M 61.691406 61.691406 L 312.941406 61.691406 L 312.941406 312.941406 L 61.691406 312.941406 Z M 61.691406 61.691406 " clip-rule="nonzero"/></clipPath><clipPath id="c18baea93e"><path d="M 113.535156 113.535156 L 261.464844 113.535156 L 261.464844 261.464844 L 113.535156 261.464844 Z M 113.535156 113.535156 " clip-rule="nonzero"/></clipPath><clipPath id="6c78615329"><path d="M 187.5 113.535156 C 146.648438 113.535156 113.535156 146.648438 113.535156 187.5 C 113.535156 228.351562 146.648438 261.464844 187.5 261.464844 C 228.351562 261.464844 261.464844 228.351562 261.464844 187.5 C 261.464844 146.648438 228.351562 113.535156 187.5 113.535156 " clip-rule="nonzero"/></clipPath><clipPath id="beef88e577"><path d="M 149 142.574219 L 168 142.574219 L 168 150 L 149 150 Z M 149 142.574219 " clip-rule="nonzero"/></clipPath><clipPath id="24db869a59"><path d="M 139.484375 152 L 178 152 L 178 232.574219 L 139.484375 232.574219 Z M 139.484375 152 " clip-rule="nonzero"/></clipPath></defs><g clip-path="url(#6e98e4d276)"><path fill="#8d857f" d="M 187.316406 312.941406 C 118.046875 312.941406 61.691406 256.585938 61.691406 187.316406 C 61.691406 118.046875 118.046875 61.691406 187.316406 61.691406 C 256.585938 61.691406 312.941406 118.046875 312.941406 187.316406 C 312.941406 256.585938 256.585938 312.941406 187.316406 312.941406 Z M 187.316406 63.917969 C 119.273438 63.917969 63.917969 119.273438 63.917969 187.316406 C 63.917969 255.359375 119.273438 310.714844 187.316406 310.714844 C 255.359375 310.714844 310.714844 255.359375 310.714844 187.316406 C 310.714844 119.273438 255.359375 63.917969 187.316406 63.917969 Z M 187.316406 63.917969 " fill-opacity="1" fill-rule="nonzero"/></g><g fill="#8d857f" fill-opacity="1"><g transform="translate(102.043951, 217.090433)"><g><path d="M -0.734375 -1.28125 L -1.546875 -2.796875 L -18.96875 1.34375 L -19 3.0625 L -19.390625 3.15625 L -22.859375 -11.40625 L -17.96875 -12.5625 L -17.765625 -11.75 C -17.960938 -11.34375 -18.234375 -10.957031 -18.578125 -10.59375 C -19.421875 -9.78125 -20.414062 -9.238281 -21.5625 -8.96875 L -20.171875 -3.125 L -11.578125 -5.171875 L -12.328125 -8.296875 C -13.054688 -8.253906 -13.753906 -8.332031 -14.421875 -8.53125 C -14.734375 -8.613281 -15.046875 -8.726562 -15.359375 -8.875 L -15.546875 -9.671875 L -9.421875 -11.140625 L -9.234375 -10.34375 C -9.429688 -10.070312 -9.644531 -9.828125 -9.875 -9.609375 C -10.40625 -9.128906 -11 -8.742188 -11.65625 -8.453125 L -10.90625 -5.328125 L -2.609375 -7.296875 L -2.578125 -9.03125 L -2.171875 -9.125 L -0.328125 -1.375 Z M -0.734375 -1.28125 "/></g></g></g><g fill="#8d857f" fill-opacity="1"><g transform="translate(97.906028, 200.086452)"><g><path d="M -0.453125 -1.390625 L -0.921875 -3.0625 L -18.84375 -2.59375 L -19.21875 -0.90625 L -19.625 -0.90625 L -19.828125 -8.3125 C -19.898438 -11.488281 -19.472656 -13.785156 -18.546875 -15.203125 C -17.628906 -16.628906 -16.3125 -17.367188 -14.59375 -17.421875 C -13.4375 -17.453125 -12.488281 -17.164062 -11.75 -16.5625 C -11.019531 -15.96875 -10.46875 -15.1875 -10.09375 -14.21875 C -9.664062 -13.207031 -9.425781 -12.125 -9.375 -10.96875 L -9.234375 -10.96875 C -9.222656 -11.65625 -9.140625 -12.265625 -8.984375 -12.796875 C -8.609375 -14.117188 -7.894531 -15.023438 -6.84375 -15.515625 L -1.3125 -18.1875 L -0.921875 -19.578125 L -0.5 -19.59375 L -0.40625 -15.6875 C -0.363281 -14.15625 -1.125 -13.007812 -2.6875 -12.25 L -8.9375 -9.296875 L -8.890625 -7.484375 L -1.046875 -7.6875 L -0.671875 -9.640625 L -0.25 -9.65625 L -0.03125 -1.40625 Z M -9.609375 -8.578125 C -9.640625 -9.890625 -10.070312 -10.90625 -10.90625 -11.625 C -11.75 -12.351562 -12.9375 -12.695312 -14.46875 -12.65625 C -16 -12.613281 -17.164062 -12.207031 -17.96875 -11.4375 C -18.78125 -10.675781 -19.171875 -9.640625 -19.140625 -8.328125 L -19.109375 -7.21875 L -9.578125 -7.46875 Z M -9.609375 -8.578125 "/></g></g></g><g fill="#8d857f" fill-opacity="1"><g transform="translate(97.359111, 180.217584)"><g><path d="M 2.46875 -10.078125 C 2.101562 -8.273438 1.398438 -6.78125 0.359375 -5.59375 C -0.679688 -4.414062 -2.03125 -3.613281 -3.6875 -3.1875 C -5.34375 -2.757812 -7.226562 -2.757812 -9.34375 -3.1875 C -11.46875 -3.613281 -13.203125 -4.347656 -14.546875 -5.390625 C -15.898438 -6.429688 -16.828125 -7.695312 -17.328125 -9.1875 C -17.835938 -10.6875 -17.910156 -12.335938 -17.546875 -14.140625 C -17.179688 -15.929688 -16.472656 -17.421875 -15.421875 -18.609375 C -14.367188 -19.796875 -13.019531 -20.597656 -11.375 -21.015625 C -9.726562 -21.441406 -7.84375 -21.441406 -5.71875 -21.015625 C -3.601562 -20.585938 -1.863281 -19.851562 -0.5 -18.8125 C 0.851562 -17.78125 1.773438 -16.515625 2.265625 -15.015625 C 2.765625 -13.515625 2.832031 -11.867188 2.46875 -10.078125 Z M 1.921875 -10.1875 C 2.066406 -10.894531 1.898438 -11.613281 1.421875 -12.34375 C 0.953125 -13.082031 0.0546875 -13.796875 -1.265625 -14.484375 C -2.597656 -15.171875 -4.40625 -15.75 -6.6875 -16.21875 C -8.976562 -16.6875 -10.867188 -16.863281 -12.359375 -16.75 C -13.847656 -16.632812 -14.957031 -16.328125 -15.6875 -15.828125 C -16.414062 -15.335938 -16.851562 -14.738281 -17 -14.03125 C -17.144531 -13.3125 -16.976562 -12.585938 -16.5 -11.859375 C -16.019531 -11.128906 -15.113281 -10.414062 -13.78125 -9.71875 C -12.457031 -9.03125 -10.648438 -8.453125 -8.359375 -7.984375 C -6.078125 -7.515625 -4.191406 -7.335938 -2.703125 -7.453125 C -1.210938 -7.578125 -0.109375 -7.882812 0.609375 -8.375 C 1.335938 -8.863281 1.773438 -9.46875 1.921875 -10.1875 Z M 1.921875 -10.1875 "/></g></g></g><g fill="#8d857f" fill-opacity="1"><g transform="translate(101.052024, 159.79304)"><g><path d="M -12.59375 -10.75 L 0.640625 -4.078125 L 2.40625 -5.6875 L 2.78125 -5.5 L 0.375 -0.75 L 0 -0.9375 L 0.265625 -3.328125 L -15.359375 -11.203125 L -16.484375 -9.890625 L -16.84375 -10.078125 L -15.265625 -13.203125 C -14.835938 -14.066406 -14.316406 -14.660156 -13.703125 -14.984375 C -13.085938 -15.316406 -12.335938 -15.492188 -11.453125 -15.515625 L 1.703125 -15.6875 L -6.609375 -25.125 C -7.191406 -25.78125 -7.53125 -26.4375 -7.625 -27.09375 C -7.71875 -27.75 -7.515625 -28.570312 -7.015625 -29.5625 L -5.6875 -32.203125 L -5.328125 -32.015625 L -5.703125 -30.328125 L 10.296875 -22.25 L 11.421875 -23.5625 L 11.796875 -23.375 L 8.203125 -16.25 L 7.828125 -16.4375 L 8.203125 -18.109375 L -5.40625 -24.984375 L 6.25 -11.75 L 5.859375 -10.984375 Z M -12.59375 -10.75 "/></g></g></g><g fill="#8d857f" fill-opacity="1"><g transform="translate(113.954879, 135.453788)"><g><path d="M -0.6875 0.140625 L 0.171875 -2.109375 L -8.640625 -20.203125 L -8.078125 -20.828125 L 11.453125 -14.171875 L 12.6875 -14.9375 L 13 -14.65625 L 10.78125 -12.140625 C 10.132812 -11.410156 9.441406 -10.960938 8.703125 -10.796875 C 7.972656 -10.628906 7.238281 -10.671875 6.5 -10.921875 L 3.0625 -12.078125 L -1.375 -7.078125 L 0.71875 -2.71875 L 2.75 -3.734375 L 3.0625 -3.453125 L -0.375 0.421875 Z M -1.734375 -7.734375 L 2.34375 -12.328125 L -5.203125 -14.921875 Z M -1.734375 -7.734375 "/></g></g></g><g fill="#8d857f" fill-opacity="1"><g transform="translate(126.82024, 120.969373)"><g><path d="M 7.609375 -4.984375 C 6.460938 -4.160156 5.171875 -3.722656 3.734375 -3.671875 C 2.296875 -3.617188 0.84375 -4.007812 -0.625 -4.84375 C -2.101562 -5.6875 -3.46875 -6.96875 -4.71875 -8.6875 C -5.976562 -10.425781 -6.757812 -12.128906 -7.0625 -13.796875 C -7.375 -15.472656 -7.222656 -17.019531 -6.609375 -18.4375 C -6.003906 -19.863281 -4.988281 -21.097656 -3.5625 -22.140625 C -2.695312 -22.753906 -1.644531 -23.132812 -0.40625 -23.28125 C 0.0390625 -23.34375 0.550781 -23.34375 1.125 -23.28125 C 1.09375 -23.851562 1.132812 -24.359375 1.25 -24.796875 C 1.375 -25.191406 1.441406 -25.398438 1.453125 -25.421875 L 2.03125 -25.84375 L 5.140625 -21.53125 L 4.234375 -20.875 C 3.515625 -21.457031 2.742188 -21.90625 1.921875 -22.21875 C 1.148438 -22.53125 0.359375 -22.675781 -0.453125 -22.65625 C -1.265625 -22.644531 -2.019531 -22.390625 -2.71875 -21.890625 C -3.757812 -21.128906 -4.1875 -19.894531 -4 -18.1875 C -3.8125 -16.476562 -2.734375 -14.265625 -0.765625 -11.546875 C 1.203125 -8.828125 2.898438 -7.117188 4.328125 -6.421875 C 5.765625 -5.734375 6.972656 -5.742188 7.953125 -6.453125 C 8.503906 -6.847656 8.789062 -7.515625 8.8125 -8.453125 C 8.8125 -8.804688 8.765625 -9.234375 8.671875 -9.734375 L 4.890625 -14.953125 L 3.28125 -14.296875 L 3.046875 -14.640625 L 9.515625 -19.328125 L 9.75 -18.984375 L 8.640625 -17.671875 L 14.140625 -10.078125 L 13.796875 -9.828125 C 12.691406 -9.023438 11.632812 -8.71875 10.625 -8.90625 C 10.164062 -9 9.765625 -9.171875 9.421875 -9.421875 C 9.484375 -8.890625 9.476562 -8.367188 9.40625 -7.859375 C 9.21875 -6.679688 8.617188 -5.722656 7.609375 -4.984375 Z M 7.609375 -4.984375 "/></g></g></g><g fill="#8d857f" fill-opacity="1"><g transform="translate(143.053656, 109.355388)"><g><path d="M 1.109375 -0.953125 L 2.46875 -2 L -4.734375 -18.421875 L -6.4375 -18.125 L -6.609375 -18.5 L 7.09375 -24.53125 L 9.125 -19.921875 L 8.375 -19.578125 C 7.9375 -19.703125 7.507812 -19.898438 7.09375 -20.171875 C 6.144531 -20.859375 5.429688 -21.742188 4.953125 -22.828125 L -0.5625 -20.40625 L 3 -12.3125 L 5.953125 -13.609375 C 5.773438 -14.316406 5.722656 -15.023438 5.796875 -15.734375 C 5.835938 -16.046875 5.894531 -16.363281 5.96875 -16.6875 L 6.734375 -17.015625 L 9.28125 -11.25 L 8.515625 -10.921875 C 8.222656 -11.078125 7.945312 -11.253906 7.6875 -11.453125 C 7.113281 -11.867188 6.628906 -12.375 6.234375 -12.96875 L 3.28125 -11.671875 L 6.765625 -3.734375 L 12.796875 -6.390625 C 12.316406 -7.472656 12.148438 -8.59375 12.296875 -9.75 C 12.359375 -10.25 12.492188 -10.695312 12.703125 -11.09375 L 13.46875 -11.4375 L 15.5 -6.8125 L 1.28125 -0.5625 Z M 1.109375 -0.953125 "/></g></g></g><g fill="#8d857f" fill-opacity="1"><g transform="translate(159.915751, 101.900385)"><g><path d="M 1.296875 -0.6875 L 2.84375 -1.4375 L -0.734375 -19 L -2.453125 -19.078125 L -2.546875 -19.484375 L 4.71875 -20.96875 C 7.820312 -21.601562 10.15625 -21.585938 11.71875 -20.921875 C 13.289062 -20.253906 14.25 -19.082031 14.59375 -17.40625 C 14.820312 -16.269531 14.707031 -15.289062 14.25 -14.46875 C 13.789062 -13.644531 13.117188 -12.957031 12.234375 -12.40625 C 11.304688 -11.8125 10.285156 -11.390625 9.171875 -11.140625 L 9.203125 -11 C 9.867188 -11.113281 10.472656 -11.140625 11.015625 -11.078125 C 12.390625 -10.941406 13.414062 -10.398438 14.09375 -9.453125 L 17.65625 -4.46875 L 19.125 -4.328125 L 19.203125 -3.921875 L 15.375 -3.140625 C 13.875 -2.828125 12.613281 -3.375 11.59375 -4.78125 L 7.59375 -10.421875 L 5.8125 -10.046875 L 7.375 -2.359375 L 9.390625 -2.328125 L 9.46875 -1.921875 L 1.375 -0.28125 Z M 6.765625 -10.953125 C 8.046875 -11.210938 8.96875 -11.816406 9.53125 -12.765625 C 10.101562 -13.722656 10.234375 -14.953125 9.921875 -16.453125 C 9.617188 -17.953125 9.019531 -19.03125 8.125 -19.6875 C 7.226562 -20.351562 6.140625 -20.554688 4.859375 -20.296875 L 3.765625 -20.0625 L 5.671875 -10.71875 Z M 6.765625 -10.953125 "/></g></g></g><g fill="#8d857f" fill-opacity="1"><g transform="translate(179.819501, 98.294824)"><g><path d="M 1.40625 -0.03125 L 1.390625 -0.453125 L 3.0625 -0.921875 L 2.609375 -18.84375 L 0.921875 -19.21875 L 0.90625 -19.625 L 8.875 -19.828125 L 8.890625 -19.421875 L 7.234375 -18.953125 L 7.6875 -1.03125 L 9.359375 -0.65625 L 9.375 -0.234375 Z M 1.40625 -0.03125 "/></g></g></g><g fill="#8d857f" fill-opacity="1"><g transform="translate(191.336229, 97.761307)"><g><path d="M 1.453125 -0.21875 L 3.171875 -0.390625 L 5.71875 -18.140625 L 4.125 -18.78125 L 4.1875 -19.1875 L 19 -17.0625 L 18.28125 -12.078125 L 17.46875 -12.1875 C 17.15625 -12.519531 16.894531 -12.921875 16.6875 -13.390625 C 16.238281 -14.472656 16.097656 -15.597656 16.265625 -16.765625 L 10.3125 -17.625 L 9.0625 -8.875 L 12.25 -8.40625 C 12.476562 -9.101562 12.804688 -9.726562 13.234375 -10.28125 C 13.429688 -10.539062 13.648438 -10.785156 13.890625 -11.015625 L 14.703125 -10.890625 L 13.8125 -4.65625 L 13 -4.78125 C 12.832031 -5.0625 12.6875 -5.351562 12.5625 -5.65625 C 12.3125 -6.320312 12.175781 -7.007812 12.15625 -7.71875 L 8.96875 -8.1875 L 7.71875 0.390625 L 14.234375 1.328125 C 14.410156 0.171875 14.859375 -0.859375 15.578125 -1.765625 C 15.898438 -2.160156 16.253906 -2.472656 16.640625 -2.703125 L 17.484375 -2.578125 L 16.765625 2.421875 L 1.390625 0.203125 Z M 1.453125 -0.21875 "/></g></g></g><g fill="#8d857f" fill-opacity="1"><g transform="translate(209.949888, 100.901374)"><g/></g></g><g fill="#8d857f" fill-opacity="1"><g transform="translate(218.398203, 103.190602)"><g><path d="M 1.453125 0.234375 L 3.140625 0.5625 L 10.859375 -15.609375 L 9.515625 -16.71875 L 9.6875 -17.078125 L 16.890625 -13.65625 L 16.71875 -13.296875 L 15.03125 -13.625 L 7.25 2.671875 L 12.6875 5.265625 C 13.195312 4.203125 13.929688 3.347656 14.890625 2.703125 C 15.328125 2.421875 15.765625 2.226562 16.203125 2.125 L 16.953125 2.484375 L 14.78125 7.046875 L 1.265625 0.609375 Z M 1.453125 0.234375 "/></g></g></g><g fill="#8d857f" fill-opacity="1"><g transform="translate(234.237674, 110.674941)"><g><path d="M -0.203125 -0.671875 L 2.109375 0.015625 L 19.484375 -10.15625 L 20.15625 -9.640625 L 15.015625 10.34375 L 15.859375 11.53125 L 15.609375 11.859375 L 12.921875 9.828125 C 12.148438 9.234375 11.648438 8.578125 11.421875 7.859375 C 11.203125 7.140625 11.1875 6.40625 11.375 5.65625 L 12.28125 2.125 L 6.953125 -1.921875 L 2.765625 0.515625 L 3.9375 2.46875 L 3.6875 2.796875 L -0.453125 -0.34375 Z M 7.578125 -2.3125 L 12.46875 1.390625 L 14.484375 -6.328125 Z M 7.578125 -2.3125 "/></g></g></g><g fill="#8d857f" fill-opacity="1"><g transform="translate(249.810006, 121.823129)"><g><path d="M 15.09375 -6.8125 L 3.40625 2.3125 L 4.109375 4.59375 L 3.78125 4.859375 L 0.515625 0.671875 L 0.84375 0.40625 L 2.890625 1.640625 L 16.6875 -9.125 L 15.984375 -10.703125 L 16.3125 -10.953125 L 18.46875 -8.1875 C 19.0625 -7.425781 19.375 -6.695312 19.40625 -6 C 19.4375 -5.300781 19.273438 -4.550781 18.921875 -3.75 L 13.46875 8.25 L 25.546875 4.734375 C 26.390625 4.484375 27.128906 4.453125 27.765625 4.640625 C 28.398438 4.835938 29.0625 5.375 29.75 6.25 L 31.5625 8.578125 L 31.234375 8.828125 L 29.875 7.765625 L 15.75 18.796875 L 16.4375 20.375 L 16.109375 20.640625 L 11.203125 14.34375 L 11.53125 14.078125 L 12.90625 15.15625 L 24.921875 5.765625 L 7.96875 10.65625 L 7.4375 9.984375 Z M 15.09375 -6.8125 "/></g></g></g><g fill="#8d857f" fill-opacity="1"><g transform="translate(266.321758, 143.87377)"><g><path d="M 0.9375 1.125 L 2 2.5 L 18.46875 -4.5625 L 18.1875 -6.25 L 18.5625 -6.40625 L 21.53125 0.53125 C 22.65625 3.144531 23.066406 5.238281 22.765625 6.8125 C 22.460938 8.394531 21.640625 9.472656 20.296875 10.046875 C 19.367188 10.441406 18.503906 10.492188 17.703125 10.203125 C 16.910156 9.910156 16.203125 9.414062 15.578125 8.71875 C 14.890625 7.96875 14.328125 7.09375 13.890625 6.09375 L 13.75 6.15625 C 14.238281 7.425781 14.515625 8.59375 14.578125 9.65625 C 14.671875 10.738281 14.523438 11.734375 14.140625 12.640625 C 13.753906 13.546875 13.054688 14.210938 12.046875 14.640625 C 10.515625 15.296875 9.046875 15.179688 7.640625 14.296875 C 6.242188 13.410156 4.945312 11.5625 3.75 8.75 L 0.546875 1.296875 Z M 13.296875 4.046875 C 13.546875 4.617188 13.929688 5.082031 14.453125 5.4375 C 14.984375 5.789062 15.597656 5.992188 16.296875 6.046875 C 17.003906 6.097656 17.710938 5.972656 18.421875 5.671875 C 19.179688 5.347656 19.785156 4.910156 20.234375 4.359375 C 20.691406 3.816406 20.976562 3.226562 21.09375 2.59375 C 21.207031 1.96875 21.140625 1.367188 20.890625 0.796875 L 20.40625 -0.359375 L 12.8125 2.890625 Z M 4.390625 8.46875 C 4.835938 9.53125 5.582031 10.238281 6.625 10.59375 C 7.664062 10.945312 8.847656 10.835938 10.171875 10.265625 C 11.484375 9.703125 12.375 8.921875 12.84375 7.921875 C 13.320312 6.929688 13.335938 5.90625 12.890625 4.84375 L 12.171875 3.171875 L 3.671875 6.796875 Z M 4.390625 8.46875 "/></g></g></g><g fill="#8d857f" fill-opacity="1"><g transform="translate(273.87784, 161.769835)"><g><path d="M 0.671875 1.296875 L 1.421875 2.859375 L 19 -0.609375 L 19.09375 -2.328125 L 19.484375 -2.40625 L 22.375 12.28125 L 17.4375 13.25 L 17.28125 12.4375 C 17.5 12.039062 17.789062 11.664062 18.15625 11.3125 C 19.03125 10.53125 20.046875 10.023438 21.203125 9.796875 L 20.03125 3.90625 L 11.375 5.609375 L 12 8.765625 C 12.71875 8.753906 13.410156 8.863281 14.078125 9.09375 C 14.390625 9.195312 14.691406 9.320312 14.984375 9.46875 L 15.140625 10.28125 L 8.96875 11.5 L 8.8125 10.6875 C 9.03125 10.4375 9.257812 10.207031 9.5 10 C 10.03125 9.53125 10.632812 9.164062 11.3125 8.90625 L 10.6875 5.75 L 2.171875 7.421875 L 3.4375 13.875 C 4.59375 13.644531 5.71875 13.726562 6.8125 14.125 C 7.289062 14.289062 7.707031 14.523438 8.0625 14.828125 L 8.21875 15.65625 L 3.265625 16.625 L 0.265625 1.375 Z M 0.671875 1.296875 "/></g></g></g><g fill="#8d857f" fill-opacity="1"><g transform="translate(277.482286, 179.848037)"><g><path d="M 0.390625 1.421875 L 0.78125 3.09375 L 18.703125 3.421875 L 19.15625 1.765625 L 19.5625 1.765625 L 19.4375 9.171875 C 19.375 12.347656 18.847656 14.628906 17.859375 16.015625 C 16.878906 17.398438 15.53125 18.078125 13.8125 18.046875 C 12.65625 18.023438 11.722656 17.695312 11.015625 17.0625 C 10.304688 16.4375 9.785156 15.632812 9.453125 14.65625 C 9.078125 13.625 8.890625 12.53125 8.890625 11.375 L 8.75 11.375 C 8.695312 12.0625 8.582031 12.660156 8.40625 13.171875 C 7.96875 14.484375 7.210938 15.363281 6.140625 15.8125 L 0.5 18.21875 L 0.0625 19.609375 L -0.359375 19.59375 L -0.296875 15.6875 C -0.265625 14.15625 0.546875 13.046875 2.140625 12.359375 L 8.515625 9.671875 L 8.546875 7.859375 L 0.703125 7.71875 L 0.234375 9.671875 L -0.1875 9.65625 L -0.03125 1.40625 Z M 9.21875 8.984375 C 9.1875 10.296875 9.570312 11.332031 10.375 12.09375 C 11.1875 12.851562 12.359375 13.25 13.890625 13.28125 C 15.421875 13.3125 16.601562 12.960938 17.4375 12.234375 C 18.28125 11.503906 18.71875 10.484375 18.75 9.171875 L 18.765625 8.0625 L 9.234375 7.875 Z M 9.21875 8.984375 "/></g></g></g><g fill="#8d857f" fill-opacity="1"><g transform="translate(276.977484, 199.809072)"><g><path d="M -0.71875 4.875 L -0.671875 6.59375 L 16.90625 10.71875 L 17.640625 7.578125 C 16.523438 7.316406 15.53125 6.769531 14.65625 5.9375 C 14.300781 5.59375 14.019531 5.222656 13.8125 4.828125 L 14.015625 4.015625 L 18.921875 5.15625 L 15.1875 21.09375 L 10.28125 19.953125 L 10.46875 19.140625 C 10.832031 18.859375 11.25 18.632812 11.71875 18.46875 C 12.832031 18.125 13.960938 18.085938 15.109375 18.359375 L 15.84375 15.21875 L -1.734375 11.09375 L -2.53125 12.625 L -2.9375 12.53125 L -1.125 4.78125 Z M -0.71875 4.875 "/></g></g></g><g fill="#8d857f" fill-opacity="1"><g transform="translate(130.080231, 276.965653)"><g><path d="M 5.140625 3.140625 C 4.984375 3.015625 4.648438 2.773438 4.140625 2.421875 C 3.640625 2.078125 3.210938 1.804688 2.859375 1.609375 C 2.523438 1.421875 2.140625 1.238281 1.703125 1.0625 C 1.265625 0.882812 0.984375 0.78125 0.859375 0.75 L 1.375 0.03125 C 1.9375 0.226562 2.359375 0.273438 2.640625 0.171875 C 2.929688 0.078125 3.207031 -0.195312 3.46875 -0.65625 L 7.390625 -7.625 C 7.585938 -7.976562 7.675781 -8.238281 7.65625 -8.40625 C 7.644531 -8.570312 7.519531 -8.722656 7.28125 -8.859375 C 7.164062 -8.921875 7.046875 -8.976562 6.921875 -9.03125 C 6.804688 -9.082031 6.734375 -9.117188 6.703125 -9.140625 L 6.6875 -9.21875 L 7.21875 -9.890625 C 7.332031 -9.816406 7.554688 -9.675781 7.890625 -9.46875 C 8.234375 -9.269531 8.582031 -9.070312 8.9375 -8.875 C 9.414062 -8.601562 9.910156 -8.332031 10.421875 -8.0625 C 10.929688 -7.800781 11.285156 -7.617188 11.484375 -7.515625 C 12.546875 -6.921875 13.375 -6.179688 13.96875 -5.296875 C 14.5625 -4.421875 14.878906 -3.476562 14.921875 -2.46875 C 14.960938 -1.46875 14.707031 -0.484375 14.15625 0.484375 C 13.550781 1.566406 12.742188 2.410156 11.734375 3.015625 C 10.722656 3.628906 9.632812 3.953125 8.46875 3.984375 C 7.3125 4.015625 6.203125 3.734375 5.140625 3.140625 Z M 9.890625 -7.359375 C 9.660156 -7.484375 9.492188 -7.539062 9.390625 -7.53125 C 9.285156 -7.519531 9.179688 -7.453125 9.078125 -7.328125 C 6.535156 -3.160156 5.097656 -0.78125 4.765625 -0.1875 C 4.523438 0.226562 4.40625 0.578125 4.40625 0.859375 C 4.40625 1.140625 4.523438 1.40625 4.765625 1.65625 C 5.003906 1.90625 5.410156 2.191406 5.984375 2.515625 C 7.179688 3.179688 8.351562 3.289062 9.5 2.84375 C 10.65625 2.40625 11.632812 1.46875 12.4375 0.03125 C 13.25 -1.414062 13.4375 -2.78125 13 -4.0625 C 12.5625 -5.34375 11.523438 -6.441406 9.890625 -7.359375 Z M 9.890625 -7.359375 "/></g></g></g><g fill="#8d857f" fill-opacity="1"><g transform="translate(143.811614, 284.403803)"><g><path d="M 10.5625 0.75 C 9.988281 1.625 9.441406 2.550781 8.921875 3.53125 L 8.796875 3.609375 C 6.347656 2.554688 4.578125 1.8125 3.484375 1.375 C 2.617188 1.03125 1.78125 0.765625 0.96875 0.578125 L 1.390625 -0.1875 C 1.953125 -0.0390625 2.367188 -0.0351562 2.640625 -0.171875 C 2.910156 -0.304688 3.148438 -0.628906 3.359375 -1.140625 L 6.296875 -8.546875 C 6.441406 -8.921875 6.492188 -9.191406 6.453125 -9.359375 C 6.421875 -9.523438 6.273438 -9.660156 6.015625 -9.765625 L 5.40625 -9.96875 L 5.390625 -10.046875 L 5.828125 -10.78125 C 7.015625 -10.269531 7.828125 -9.925781 8.265625 -9.75 C 9.660156 -9.207031 10.753906 -8.796875 11.546875 -8.515625 C 12.335938 -8.242188 13.035156 -8.03125 13.640625 -7.875 L 13.65625 -7.734375 C 13.082031 -6.898438 12.5625 -5.984375 12.09375 -4.984375 L 11.21875 -5.234375 L 11.546875 -5.96875 C 11.710938 -6.382812 11.769531 -6.691406 11.71875 -6.890625 C 11.675781 -7.097656 11.488281 -7.296875 11.15625 -7.484375 C 10.820312 -7.679688 10.21875 -7.957031 9.34375 -8.3125 C 8.9375 -8.46875 8.648438 -8.566406 8.484375 -8.609375 C 8.316406 -8.648438 8.191406 -8.632812 8.109375 -8.5625 C 8.035156 -8.488281 7.941406 -8.335938 7.828125 -8.109375 L 6.328125 -4.71875 L 8.15625 -3.984375 C 8.601562 -3.804688 9.347656 -3.59375 10.390625 -3.34375 L 10.421875 -3.234375 L 9.765625 -2.28125 C 8.472656 -2.820312 7.65625 -3.160156 7.3125 -3.296875 C 6.914062 -3.453125 6.445312 -3.59375 5.90625 -3.71875 L 4.5 -0.375 C 4.363281 -0.03125 4.296875 0.21875 4.296875 0.375 C 4.296875 0.53125 4.378906 0.664062 4.546875 0.78125 C 4.710938 0.90625 5.019531 1.054688 5.46875 1.234375 C 6.457031 1.628906 7.179688 1.863281 7.640625 1.9375 C 8.097656 2.007812 8.472656 1.9375 8.765625 1.71875 C 9.054688 1.5 9.378906 1.070312 9.734375 0.4375 L 10.546875 0.65625 Z M 10.5625 0.75 "/></g></g></g><g fill="#8d857f" fill-opacity="1"><g transform="translate(156.337245, 289.179707)"><g><path d="M 1.46875 -0.375 C 2.039062 -0.320312 2.4375 -0.367188 2.65625 -0.515625 C 2.875 -0.660156 3.050781 -0.992188 3.1875 -1.515625 L 5.21875 -9.25 C 5.3125 -9.644531 5.332031 -9.921875 5.28125 -10.078125 C 5.226562 -10.234375 5.066406 -10.34375 4.796875 -10.40625 C 4.671875 -10.445312 4.539062 -10.476562 4.40625 -10.5 C 4.28125 -10.519531 4.195312 -10.535156 4.15625 -10.546875 L 4.140625 -10.640625 L 4.484375 -11.390625 C 4.628906 -11.347656 4.898438 -11.269531 5.296875 -11.15625 C 5.691406 -11.039062 6.097656 -10.925781 6.515625 -10.8125 C 6.878906 -10.71875 7.304688 -10.613281 7.796875 -10.5 C 8.285156 -10.394531 8.632812 -10.320312 8.84375 -10.28125 C 10.113281 -9.945312 11.007812 -9.410156 11.53125 -8.671875 C 12.0625 -7.929688 12.191406 -7.035156 11.921875 -5.984375 C 11.742188 -5.296875 11.375 -4.691406 10.8125 -4.171875 C 10.257812 -3.660156 9.609375 -3.300781 8.859375 -3.09375 C 8.109375 -2.882812 7.378906 -2.867188 6.671875 -3.046875 L 5.125 -3.453125 L 4.625 -1.671875 C 4.46875 -1.078125 4.367188 -0.648438 4.328125 -0.390625 C 4.296875 -0.128906 4.328125 0.0507812 4.421875 0.15625 C 4.515625 0.257812 4.691406 0.347656 4.953125 0.421875 C 5.148438 0.472656 5.34375 0.519531 5.53125 0.5625 C 5.726562 0.601562 5.863281 0.625 5.9375 0.625 L 5.96875 0.71875 L 5.578125 1.515625 C 5.453125 1.460938 5.226562 1.390625 4.90625 1.296875 C 4.59375 1.203125 4.257812 1.109375 3.90625 1.015625 C 3.40625 0.890625 2.820312 0.757812 2.15625 0.625 C 1.488281 0.488281 1.144531 0.429688 1.125 0.453125 Z M 7.3125 -3.75 C 8.082031 -3.675781 8.71875 -3.828125 9.21875 -4.203125 C 9.71875 -4.585938 10.078125 -5.203125 10.296875 -6.046875 C 10.546875 -6.992188 10.441406 -7.753906 9.984375 -8.328125 C 9.535156 -8.910156 8.71875 -9.359375 7.53125 -9.671875 C 7.3125 -9.722656 7.175781 -9.738281 7.125 -9.71875 C 7.070312 -9.707031 7.019531 -9.644531 6.96875 -9.53125 C 6.457031 -7.988281 5.945312 -6.316406 5.4375 -4.515625 Z M 7.3125 -3.75 "/></g></g></g><g fill="#8d857f" fill-opacity="1"><g transform="translate(168.645622, 292.319763)"><g><path d="M 6.140625 1.015625 C 4.816406 0.847656 3.84375 0.359375 3.21875 -0.453125 C 2.59375 -1.273438 2.363281 -2.351562 2.53125 -3.6875 L 3.3125 -9.9375 C 3.363281 -10.34375 3.347656 -10.613281 3.265625 -10.75 C 3.191406 -10.894531 3.015625 -10.984375 2.734375 -11.015625 C 2.609375 -11.035156 2.484375 -11.046875 2.359375 -11.046875 C 2.242188 -11.054688 2.160156 -11.0625 2.109375 -11.0625 L 2.09375 -11.15625 L 2.3125 -11.96875 C 2.457031 -11.9375 2.738281 -11.890625 3.15625 -11.828125 C 3.582031 -11.765625 4.007812 -11.703125 4.4375 -11.640625 C 4.769531 -11.597656 5.15625 -11.570312 5.59375 -11.5625 C 6.03125 -11.550781 6.3125 -11.550781 6.4375 -11.5625 L 6.25 -10.71875 C 5.78125 -10.71875 5.457031 -10.65625 5.28125 -10.53125 C 5.101562 -10.40625 4.976562 -10.164062 4.90625 -9.8125 L 4.0625 -4.28125 C 3.90625 -3.039062 4.050781 -2.050781 4.5 -1.3125 C 4.957031 -0.582031 5.703125 -0.15625 6.734375 -0.03125 C 7.765625 0.101562 8.582031 -0.0664062 9.1875 -0.546875 C 9.789062 -1.023438 10.160156 -1.773438 10.296875 -2.796875 C 10.410156 -3.804688 10.535156 -4.957031 10.671875 -6.25 C 10.804688 -7.539062 10.898438 -8.445312 10.953125 -8.96875 C 10.972656 -9.40625 10.953125 -9.6875 10.890625 -9.8125 C 10.828125 -9.9375 10.65625 -10.019531 10.375 -10.0625 C 10.226562 -10.070312 10.070312 -10.082031 9.90625 -10.09375 C 9.75 -10.101562 9.640625 -10.113281 9.578125 -10.125 L 9.546875 -10.203125 L 9.78125 -11.015625 C 9.925781 -10.992188 10.207031 -10.945312 10.625 -10.875 C 11.050781 -10.8125 11.476562 -10.753906 11.90625 -10.703125 C 12.238281 -10.660156 12.597656 -10.632812 12.984375 -10.625 C 13.378906 -10.625 13.632812 -10.628906 13.75 -10.640625 L 13.5625 -9.796875 C 13.1875 -9.796875 12.898438 -9.769531 12.703125 -9.71875 C 12.503906 -9.675781 12.367188 -9.59375 12.296875 -9.46875 C 12.222656 -9.351562 12.171875 -9.164062 12.140625 -8.90625 L 11.34375 -2.5625 C 11.175781 -1.238281 10.632812 -0.265625 9.71875 0.359375 C 8.8125 0.984375 7.617188 1.203125 6.140625 1.015625 Z M 6.140625 1.015625 "/></g></g></g><g fill="#8d857f" fill-opacity="1"><g transform="translate(183.612549, 293.917005)"><g><path d="M 1.1875 -0.625 C 1.789062 -0.726562 2.195312 -0.890625 2.40625 -1.109375 C 2.613281 -1.335938 2.722656 -1.71875 2.734375 -2.25 L 2.859375 -10.234375 C 2.867188 -10.640625 2.828125 -10.910156 2.734375 -11.046875 C 2.640625 -11.179688 2.453125 -11.25 2.171875 -11.25 L 1.375 -11.234375 L 1.328125 -11.3125 L 1.484375 -12.140625 C 1.679688 -12.140625 1.835938 -12.128906 1.953125 -12.109375 L 3.75 -12.0625 C 4.3125 -12.050781 5.035156 -12.097656 5.921875 -12.203125 L 5.84375 -11.34375 C 5.320312 -11.289062 4.96875 -11.191406 4.78125 -11.046875 C 4.59375 -10.898438 4.484375 -10.644531 4.453125 -10.28125 C 4.359375 -8.789062 4.273438 -7.238281 4.203125 -5.625 C 4.128906 -4.007812 4.085938 -2.820312 4.078125 -2.0625 C 4.066406 -1.539062 4.117188 -1.195312 4.234375 -1.03125 C 4.347656 -0.863281 4.570312 -0.78125 4.90625 -0.78125 C 5.113281 -0.769531 5.445312 -0.78125 5.90625 -0.8125 L 5.9375 -0.734375 L 5.75 0.140625 C 5.570312 0.140625 5.4375 0.128906 5.34375 0.109375 C 4.457031 0.078125 3.765625 0.0546875 3.265625 0.046875 C 2.648438 0.0351562 1.914062 0.101562 1.0625 0.25 Z M 1.1875 -0.625 "/></g></g></g><g fill="#8d857f" fill-opacity="1"><g transform="translate(192.51081, 294.019168)"><g><path d="M 4.15625 -0.109375 C 3.625 -0.0664062 3.132812 -0.078125 2.6875 -0.140625 C 2.25 -0.203125 1.878906 -0.273438 1.578125 -0.359375 C 1.285156 -0.453125 1.140625 -0.503906 1.140625 -0.515625 L 1.03125 -0.703125 C 1.039062 -0.773438 1.050781 -0.96875 1.0625 -1.28125 C 1.070312 -1.59375 1.070312 -1.988281 1.0625 -2.46875 C 1.050781 -2.945312 1.023438 -3.457031 0.984375 -4 L 1.84375 -4.1875 C 1.914062 -3.226562 2.03125 -2.53125 2.1875 -2.09375 C 2.34375 -1.65625 2.597656 -1.363281 2.953125 -1.21875 C 3.316406 -1.070312 3.851562 -1.03125 4.5625 -1.09375 C 5.351562 -1.15625 5.972656 -1.394531 6.421875 -1.8125 C 6.867188 -2.226562 7.066406 -2.753906 7.015625 -3.390625 C 6.984375 -3.765625 6.828125 -4.09375 6.546875 -4.375 C 6.265625 -4.664062 5.9375 -4.898438 5.5625 -5.078125 C 5.195312 -5.265625 4.648438 -5.507812 3.921875 -5.8125 C 3.234375 -6.101562 2.664062 -6.367188 2.21875 -6.609375 C 1.78125 -6.859375 1.40625 -7.164062 1.09375 -7.53125 C 0.78125 -7.90625 0.601562 -8.351562 0.5625 -8.875 C 0.507812 -9.53125 0.648438 -10.140625 0.984375 -10.703125 C 1.316406 -11.273438 1.800781 -11.742188 2.4375 -12.109375 C 3.082031 -12.472656 3.804688 -12.6875 4.609375 -12.75 C 5.117188 -12.789062 5.585938 -12.796875 6.015625 -12.765625 C 6.453125 -12.734375 6.796875 -12.6875 7.046875 -12.625 C 7.304688 -12.570312 7.472656 -12.539062 7.546875 -12.53125 L 7.609375 -12.40625 C 7.609375 -12.332031 7.59375 -12.15625 7.5625 -11.875 C 7.53125 -11.601562 7.503906 -11.21875 7.484375 -10.71875 C 7.460938 -10.21875 7.453125 -9.707031 7.453125 -9.1875 L 6.734375 -9.046875 L 6.609375 -9.125 C 6.617188 -9.175781 6.617188 -9.296875 6.609375 -9.484375 C 6.609375 -9.671875 6.597656 -9.882812 6.578125 -10.125 C 6.523438 -10.800781 6.320312 -11.25 5.96875 -11.46875 C 5.625 -11.6875 5.03125 -11.765625 4.1875 -11.703125 C 3.488281 -11.640625 2.925781 -11.414062 2.5 -11.03125 C 2.082031 -10.65625 1.894531 -10.207031 1.9375 -9.6875 C 1.976562 -9.175781 2.234375 -8.75 2.703125 -8.40625 C 3.171875 -8.070312 3.851562 -7.722656 4.75 -7.359375 C 5.601562 -7.015625 6.253906 -6.722656 6.703125 -6.484375 C 7.148438 -6.242188 7.554688 -5.9375 7.921875 -5.5625 C 8.285156 -5.1875 8.488281 -4.734375 8.53125 -4.203125 C 8.59375 -3.484375 8.445312 -2.828125 8.09375 -2.234375 C 7.738281 -1.648438 7.222656 -1.171875 6.546875 -0.796875 C 5.867188 -0.421875 5.070312 -0.191406 4.15625 -0.109375 Z M 4.15625 -0.109375 "/></g></g></g><g fill="#8d857f" fill-opacity="1"><g transform="translate(204.460353, 292.805537)"><g/></g></g><g fill="#8d857f" fill-opacity="1"><g transform="translate(209.986121, 291.864673)"><g><path d="M 0.875 -0.859375 C 1.332031 -1.015625 1.660156 -1.175781 1.859375 -1.34375 C 2.066406 -1.519531 2.175781 -1.757812 2.1875 -2.0625 C 2.207031 -2.375 2.15625 -2.804688 2.03125 -3.359375 L 1.03125 -7.578125 C 0.9375 -8.015625 0.796875 -8.28125 0.609375 -8.375 C 0.421875 -8.476562 0.148438 -8.488281 -0.203125 -8.40625 C -0.367188 -8.375 -0.550781 -8.3125 -0.75 -8.21875 C -0.957031 -8.132812 -1.09375 -8.082031 -1.15625 -8.0625 L -1.21875 -8.109375 L -1.328125 -8.90625 C -1.210938 -8.945312 -0.972656 -9.035156 -0.609375 -9.171875 C -0.242188 -9.304688 0.171875 -9.460938 0.640625 -9.640625 C 1.585938 -10.046875 2.117188 -10.273438 2.234375 -10.328125 C 2.359375 -10.390625 2.425781 -10.425781 2.4375 -10.4375 L 2.609375 -10.125 C 2.410156 -9.875 2.289062 -9.632812 2.25 -9.40625 C 2.207031 -9.1875 2.222656 -8.859375 2.296875 -8.421875 C 2.679688 -6.441406 3.066406 -4.628906 3.453125 -2.984375 C 3.566406 -2.503906 3.703125 -2.191406 3.859375 -2.046875 C 4.023438 -1.910156 4.296875 -1.882812 4.671875 -1.96875 C 4.878906 -2.019531 5.070312 -2.070312 5.25 -2.125 C 5.4375 -2.175781 5.5625 -2.210938 5.625 -2.234375 L 5.671875 -2.171875 L 5.71875 -1.28125 C 5.539062 -1.257812 5.207031 -1.195312 4.71875 -1.09375 C 4.238281 -0.988281 3.742188 -0.878906 3.234375 -0.765625 C 2.835938 -0.671875 2.394531 -0.53125 1.90625 -0.34375 C 1.414062 -0.164062 1.097656 -0.046875 0.953125 0.015625 Z M 0.875 -0.859375 "/></g></g></g><g fill="#8d857f" fill-opacity="1"><g transform="translate(218.235584, 289.884369)"><g><path d="M 1.21875 -10.515625 C 1.832031 -10.710938 2.4375 -10.734375 3.03125 -10.578125 C 3.625 -10.421875 4.15625 -10.101562 4.625 -9.625 C 5.101562 -9.144531 5.460938 -8.539062 5.703125 -7.8125 C 6.234375 -6.207031 6.175781 -4.585938 5.53125 -2.953125 C 4.894531 -1.328125 3.753906 0.128906 2.109375 1.421875 L 1.9375 1.359375 L 1.578125 0.875 C 2.640625 -0.0507812 3.429688 -1.0625 3.953125 -2.15625 C 4.472656 -3.25 4.695312 -4.367188 4.625 -5.515625 L 4.546875 -5.53125 C 4.191406 -5.082031 3.859375 -4.71875 3.546875 -4.4375 C 3.242188 -4.15625 3.015625 -3.984375 2.859375 -3.921875 C 2.285156 -3.734375 1.71875 -3.6875 1.15625 -3.78125 C 0.59375 -3.882812 0.101562 -4.117188 -0.3125 -4.484375 C -0.738281 -4.859375 -1.046875 -5.320312 -1.234375 -5.875 C -1.441406 -6.507812 -1.476562 -7.140625 -1.34375 -7.765625 C -1.207031 -8.398438 -0.914062 -8.957031 -0.46875 -9.4375 C -0.03125 -9.925781 0.53125 -10.285156 1.21875 -10.515625 Z M 2.921875 -5.125 C 3.203125 -5.21875 3.488281 -5.378906 3.78125 -5.609375 C 4.082031 -5.847656 4.320312 -6.109375 4.5 -6.390625 C 4.445312 -6.679688 4.375 -6.960938 4.28125 -7.234375 C 3.976562 -8.148438 3.539062 -8.816406 2.96875 -9.234375 C 2.40625 -9.648438 1.789062 -9.75 1.125 -9.53125 C 0.539062 -9.332031 0.144531 -8.984375 -0.0625 -8.484375 C -0.269531 -7.992188 -0.265625 -7.410156 -0.046875 -6.734375 C 0.0976562 -6.304688 0.328125 -5.945312 0.640625 -5.65625 C 0.953125 -5.363281 1.3125 -5.164062 1.71875 -5.0625 C 2.125 -4.96875 2.523438 -4.988281 2.921875 -5.125 Z M 2.921875 -5.125 "/></g></g></g><g fill="#8d857f" fill-opacity="1"><g transform="translate(228.358143, 286.429459)"><g><path d="M 1.78125 -7.953125 C 2.34375 -8.203125 2.90625 -8.300781 3.46875 -8.25 C 4.039062 -8.207031 4.554688 -8.03125 5.015625 -7.71875 C 5.472656 -7.40625 5.820312 -6.984375 6.0625 -6.453125 C 6.34375 -5.828125 6.441406 -5.191406 6.359375 -4.546875 C 6.273438 -3.898438 6.035156 -3.3125 5.640625 -2.78125 C 5.253906 -2.257812 4.738281 -1.851562 4.09375 -1.5625 C 3.476562 -1.289062 2.867188 -1.207031 2.265625 -1.3125 C 1.660156 -1.414062 1.101562 -1.679688 0.59375 -2.109375 C 0.0820312 -2.535156 -0.332031 -3.101562 -0.65625 -3.8125 C -1.332031 -5.34375 -1.4375 -6.953125 -0.96875 -8.640625 C -0.507812 -10.328125 0.484375 -11.890625 2.015625 -13.328125 L 2.15625 -13.296875 L 2.578125 -12.875 C 1.617188 -11.832031 0.9375 -10.738281 0.53125 -9.59375 C 0.125 -8.457031 0.0078125 -7.328125 0.1875 -6.203125 L 0.25 -6.1875 C 0.582031 -6.664062 0.878906 -7.0625 1.140625 -7.375 C 1.410156 -7.6875 1.625 -7.878906 1.78125 -7.953125 Z M 4.0625 -2.5625 C 4.625 -2.8125 4.984375 -3.191406 5.140625 -3.703125 C 5.304688 -4.222656 5.25 -4.8125 4.96875 -5.46875 C 4.789062 -5.863281 4.523438 -6.191406 4.171875 -6.453125 C 3.828125 -6.710938 3.453125 -6.867188 3.046875 -6.921875 C 2.640625 -6.984375 2.242188 -6.929688 1.859375 -6.765625 C 1.578125 -6.640625 1.300781 -6.441406 1.03125 -6.171875 C 0.757812 -5.898438 0.546875 -5.625 0.390625 -5.34375 C 0.460938 -5.0625 0.554688 -4.789062 0.671875 -4.53125 C 1.078125 -3.632812 1.582031 -3.007812 2.1875 -2.65625 C 2.789062 -2.300781 3.414062 -2.269531 4.0625 -2.5625 Z M 4.0625 -2.5625 "/></g></g></g><g fill="#8d857f" fill-opacity="1"><g transform="translate(238.257905, 281.930205)"><g><path d="M 4.28125 -2.21875 C 3.582031 -1.8125 2.863281 -1.625 2.125 -1.65625 C 1.394531 -1.6875 0.703125 -1.921875 0.046875 -2.359375 C -0.597656 -2.796875 -1.15625 -3.414062 -1.625 -4.21875 C -2.113281 -5.0625 -2.378906 -5.921875 -2.421875 -6.796875 C -2.472656 -7.671875 -2.304688 -8.476562 -1.921875 -9.21875 C -1.535156 -9.957031 -0.960938 -10.546875 -0.203125 -10.984375 C 0.460938 -11.378906 1.160156 -11.5625 1.890625 -11.53125 C 2.628906 -11.507812 3.320312 -11.285156 3.96875 -10.859375 C 4.613281 -10.429688 5.160156 -9.832031 5.609375 -9.0625 C 6.109375 -8.195312 6.382812 -7.316406 6.4375 -6.421875 C 6.5 -5.535156 6.34375 -4.722656 5.96875 -3.984375 C 5.601562 -3.242188 5.039062 -2.65625 4.28125 -2.21875 Z M 3.84375 -3.640625 C 4.664062 -4.117188 5.179688 -4.765625 5.390625 -5.578125 C 5.597656 -6.390625 5.457031 -7.210938 4.96875 -8.046875 C 4.625 -8.648438 4.1875 -9.113281 3.65625 -9.4375 C 3.125 -9.757812 2.5625 -9.925781 1.96875 -9.9375 C 1.375 -9.945312 0.789062 -9.785156 0.21875 -9.453125 C -0.601562 -8.972656 -1.109375 -8.328125 -1.296875 -7.515625 C -1.492188 -6.703125 -1.34375 -5.863281 -0.84375 -5 C -0.5 -4.40625 -0.0703125 -3.945312 0.4375 -3.625 C 0.957031 -3.3125 1.507812 -3.148438 2.09375 -3.140625 C 2.6875 -3.140625 3.269531 -3.304688 3.84375 -3.640625 Z M 3.84375 -3.640625 "/></g></g></g><g clip-path="url(#c18baea93e)"><g clip-path="url(#6c78615329)"><path fill="#8d857f" d="M 113.535156 113.535156 L 261.464844 113.535156 L 261.464844 261.464844 L 113.535156 261.464844 Z M 113.535156 113.535156 " fill-opacity="1" fill-rule="nonzero"/></g></g><g clip-path="url(#beef88e577)"><path fill="#fafafa" d="M 150.40625 149.125 L 149.78125 143.832031 C 149.648438 143.167969 150.148438 142.554688 150.820312 142.554688 L 166.914062 142.554688 C 167.585938 142.554688 168.089844 143.167969 167.960938 143.832031 L 167.332031 149.125 L 150.40625 149.125 " fill-opacity="1" fill-rule="nonzero"/></g><path fill="#fafafa" d="M 225.238281 225.648438 C 216.941406 231.59375 206.652344 231.414062 202.257812 225.253906 C 197.859375 219.089844 201.019531 209.277344 209.316406 203.335938 C 217.613281 197.394531 227.902344 197.570312 232.296875 203.734375 C 236.695312 209.894531 233.535156 219.707031 225.238281 225.648438 " fill-opacity="1" fill-rule="nonzero"/><path fill="#fafafa" d="M 192.355469 205.347656 C 192.355469 203.484375 193.859375 201.980469 195.710938 201.980469 C 197.570312 201.980469 199.074219 203.484375 199.074219 205.347656 C 199.074219 207.203125 197.570312 208.710938 195.710938 208.710938 C 193.859375 208.710938 192.355469 207.203125 192.355469 205.347656 Z M 185.058594 219.554688 C 182.421875 219.554688 180.289062 217.414062 180.289062 214.773438 C 180.289062 212.132812 182.421875 209.992188 185.058594 209.992188 C 187.695312 209.992188 189.828125 212.132812 189.828125 214.773438 C 189.828125 217.414062 187.695312 219.554688 185.058594 219.554688 Z M 207.367188 200.601562 C 211.839844 197.398438 217.027344 195.636719 221.96875 195.636719 C 225.378906 195.636719 228.496094 196.496094 231.039062 198.070312 L 231.039062 182.453125 L 190.078125 188.601562 C 190.660156 189.804688 190.992188 191.144531 190.992188 192.570312 C 190.992188 197.617188 186.90625 201.714844 181.867188 201.714844 C 181.554688 201.714844 181.25 201.695312 180.945312 201.664062 C 180.082031 206.6875 175.722656 210.511719 170.464844 210.511719 L 170.464844 228.234375 L 197.699219 223.582031 C 195.238281 216.144531 199.019531 206.582031 207.367188 200.601562 " fill-opacity="1" fill-rule="nonzero"/><path fill="#fafafa" d="M 170.464844 207.152344 C 174.019531 207.152344 177.039062 204.605469 177.644531 201.09375 L 178.171875 198.011719 L 181.28125 198.324219 C 181.476562 198.34375 181.675781 198.351562 181.867188 198.351562 C 185.050781 198.351562 187.640625 195.757812 187.640625 192.570312 C 187.640625 191.703125 187.445312 190.859375 187.0625 190.0625 L 185.082031 185.957031 L 227.628906 179.570312 C 222.484375 175.828125 211.355469 169.804688 193.171875 170.152344 L 170.464844 195.109375 L 170.464844 207.152344 " fill-opacity="1" fill-rule="nonzero"/><g clip-path="url(#24db869a59)"><path fill="#fafafa" d="M 167.113281 210.511719 L 167.113281 193.808594 L 177.777344 182.085938 C 177 176.6875 174.53125 172.273438 174.53125 172.273438 C 168.441406 161.324219 167.566406 152.007812 167.566406 152.007812 L 150.167969 152.007812 C 150.167969 152.007812 149.296875 161.324219 143.207031 172.273438 C 143.207031 172.273438 139.726562 178.488281 139.726562 185.191406 L 139.726562 227.265625 C 139.726562 228.292969 140.324219 229.222656 141.257812 229.644531 C 143.707031 230.75 149.234375 232.589844 158.867188 232.589844 C 162.058594 232.589844 164.785156 232.386719 167.113281 232.078125 L 167.113281 210.511719 " fill-opacity="1" fill-rule="nonzero"/></g></svg>