<svg xmlns="http://www.w3.org/2000/svg" xmlns:xlink="http://www.w3.org/1999/xlink" width="500" zoomAndPan="magnify" viewBox="0 0 375 225" height="300" preserveAspectRatio="xMidYMid meet" version="1.0"><defs><g/><clipPath id="cacf444526"><path d="M 127.671875 7.035156 L 246.101562 7.035156 L 246.101562 59.535156 L 127.671875 59.535156 Z M 127.671875 7.035156 " clip-rule="nonzero"/></clipPath></defs><path fill="#c6996f" d="M 137.320312 69.785156 C 136.292969 70.21875 135.164062 70.699219 134.007812 71.195312 C 134.109375 71.371094 134.199219 71.71875 134.425781 71.886719 C 134.734375 72.121094 135.113281 72.195312 134.9375 72.738281 C 134.804688 73.160156 134.792969 73.621094 134.714844 74.160156 C 135.617188 72.640625 136.484375 71.1875 137.320312 69.785156 Z M 180.234375 55.53125 C 179.273438 55.863281 178.308594 56.175781 177.359375 56.53125 C 176.800781 56.742188 176.273438 57.265625 175.683594 56.417969 C 175.914062 55.832031 176.113281 55.117188 176.460938 54.476562 C 176.9375 53.597656 177.527344 52.777344 178.054688 51.925781 C 178.109375 51.835938 178.082031 51.695312 178.089844 51.578125 C 178.109375 51.296875 178.066406 50.988281 178.160156 50.730469 C 178.398438 50.089844 178.703125 49.472656 178.976562 48.847656 C 178.925781 48.820312 178.867188 48.789062 178.8125 48.761719 C 178.28125 48.988281 177.753906 49.226562 177.214844 49.4375 C 177.046875 49.503906 176.851562 49.492188 176.671875 49.503906 C 176.5 49.511719 176.28125 49.433594 176.171875 49.515625 C 175.757812 49.816406 175.324219 50.121094 175.003906 50.515625 C 174.746094 50.832031 174.324219 51 174.226562 51.484375 C 174.183594 51.726562 173.839844 51.902344 173.664062 52.128906 C 173.457031 52.402344 173.167969 52.679688 173.128906 52.988281 C 173.089844 53.304688 173.300781 53.652344 173.410156 54.011719 C 173.324219 54.089844 173.140625 54.167969 173.109375 54.289062 C 172.933594 55.015625 172.765625 55.746094 172.636719 56.484375 C 172.34375 58.140625 172.074219 59.800781 171.789062 61.457031 C 171.730469 61.796875 171.648438 62.132812 171.550781 62.460938 C 171.519531 62.574219 171.355469 62.75 171.332031 62.742188 C 170.664062 62.398438 170.628906 63.109375 170.335938 63.273438 C 170.558594 63.664062 170.757812 64.011719 170.953125 64.359375 C 171.238281 64.859375 171.566406 65.335938 171.785156 65.859375 C 171.949219 66.246094 171.921875 66.277344 172.253906 66.0625 C 172.527344 65.886719 172.820312 65.746094 173.117188 65.621094 C 173.558594 65.441406 174.050781 65.359375 174.441406 65.113281 C 175.734375 64.285156 176.632812 63.054688 177.40625 61.78125 C 178.109375 60.621094 178.773438 59.429688 178.980469 57.988281 C 179.101562 57.136719 179.789062 56.367188 180.234375 55.53125 Z M 246.164062 75.808594 C 245.625 75.703125 245.082031 75.597656 244.511719 75.488281 C 244.699219 75.824219 244.851562 76.097656 245.015625 76.394531 C 244.761719 76.449219 244.542969 76.492188 244.457031 76.511719 C 244.09375 76.113281 243.8125 75.691406 243.425781 75.414062 C 242.703125 74.890625 241.925781 74.453125 241.171875 73.976562 C 241.042969 73.894531 240.917969 73.796875 240.808594 73.6875 C 239.757812 72.628906 238.535156 71.6875 237.726562 70.472656 C 237.164062 69.628906 236.554688 69.558594 235.773438 69.492188 C 234.90625 69.414062 234.03125 69.367188 233.167969 69.246094 C 232.753906 69.1875 232.355469 68.976562 231.949219 68.847656 C 231.734375 68.78125 231.488281 68.671875 231.285156 68.710938 C 230.75 68.824219 230.5 68.527344 230.210938 68.164062 C 229.597656 67.390625 228.953125 66.632812 228.292969 65.898438 C 227.789062 65.347656 227.25 64.832031 226.710938 64.3125 C 225.785156 63.421875 224.746094 63.386719 223.640625 63.925781 C 222.554688 64.457031 221.46875 65 220.386719 65.542969 C 219.960938 65.753906 219.476562 65.582031 219.277344 65.132812 C 218.710938 63.835938 218.136719 62.542969 217.574219 61.242188 C 217.519531 61.121094 217.476562 60.992188 217.457031 60.859375 C 217.261719 59.769531 216.210938 59.078125 215.125 59.363281 C 214.976562 59.402344 214.820312 59.546875 214.738281 59.683594 C 214.230469 60.546875 213.8125 61.464844 213.234375 62.273438 C 212.371094 63.484375 211.964844 64.9375 211.0625 66.117188 C 210.878906 66.355469 210.742188 66.632812 210.671875 66.75 C 211.777344 66.695312 213.144531 66.632812 214.511719 66.558594 C 214.957031 66.535156 215.40625 66.519531 215.839844 66.433594 C 216.277344 66.347656 216.457031 66.675781 216.6875 66.898438 C 216.722656 66.933594 216.457031 67.265625 216.347656 67.472656 C 216.183594 67.773438 216.007812 68.074219 215.886719 68.394531 C 215.449219 69.558594 215.007812 70.726562 214.617188 71.90625 C 214.109375 73.433594 213.65625 74.980469 213.167969 76.511719 C 213.035156 76.929688 213.011719 77.253906 213.390625 77.59375 C 213.625 77.804688 213.660156 78.21875 213.859375 78.488281 C 214.394531 79.203125 214.9375 79.921875 215.535156 80.585938 C 217 82.214844 219.007812 83.0625 220.855469 84.132812 C 221.589844 84.554688 222.335938 84.960938 223.0625 85.40625 C 223.164062 85.472656 223.203125 85.710938 223.191406 85.859375 C 223.183594 85.953125 223.007812 86.109375 222.925781 86.097656 C 222.664062 86.0625 222.386719 86.003906 222.160156 85.875 C 220.886719 85.160156 219.65625 84.351562 218.339844 83.722656 C 217.898438 83.507812 217.574219 83.425781 217.507812 82.882812 C 217.492188 82.75 217.097656 82.5625 216.882812 82.566406 C 216.183594 82.59375 215.8125 82.113281 215.34375 81.734375 C 214.824219 81.3125 214.25 80.957031 213.699219 80.574219 C 213.621094 80.519531 213.527344 80.480469 213.472656 80.410156 C 213.089844 79.894531 212.722656 79.363281 212.335938 78.855469 C 211.960938 78.363281 211.929688 78.242188 212.089844 77.550781 C 212.113281 77.449219 212.074219 77.316406 212.023438 77.222656 C 211.691406 76.617188 211.992188 76.070312 212.136719 75.496094 C 212.296875 74.851562 212.355469 74.183594 212.507812 73.539062 C 212.6875 72.742188 212.890625 71.949219 213.136719 71.175781 C 213.441406 70.210938 213.796875 69.265625 214.148438 68.257812 C 213.402344 68.316406 212.683594 68.378906 211.960938 68.433594 C 210.1875 68.5625 208.707031 69.335938 207.394531 70.484375 C 207.308594 70.558594 207.210938 70.660156 207.109375 70.671875 C 206.921875 70.699219 206.730469 70.667969 206.539062 70.664062 C 206.589844 70.460938 206.589844 70.230469 206.691406 70.066406 C 206.976562 69.632812 207.304688 69.230469 207.617188 68.816406 C 207.875 68.472656 208.167969 68.15625 208.382812 67.792969 C 208.792969 67.09375 209.144531 66.363281 209.542969 65.660156 C 210.183594 64.535156 210.910156 63.460938 211.472656 62.300781 C 211.964844 61.273438 212.652344 60.320312 212.769531 59.117188 C 212.820312 58.617188 213.144531 58.144531 213.34375 57.65625 C 213.308594 57.625 213.269531 57.589844 213.234375 57.558594 C 212.839844 57.8125 212.46875 58.105469 212.050781 58.3125 C 211.070312 58.796875 210.039062 59.1875 209.085938 59.714844 C 208.042969 60.292969 207 60.90625 206.066406 61.644531 C 205.085938 62.425781 204.503906 63.5625 203.867188 64.636719 C 203.171875 65.824219 202.390625 66.960938 201.625 68.109375 C 200.929688 69.140625 200.261719 70.203125 199.484375 71.175781 C 198.652344 72.214844 197.710938 73.171875 196.796875 74.140625 C 196.390625 74.574219 195.949219 74.988281 195.476562 75.34375 C 195.007812 75.695312 194.496094 76 193.96875 76.265625 C 193.226562 76.632812 192.433594 76.898438 191.714844 77.296875 C 191.117188 77.625 190.621094 77.511719 190.035156 77.164062 C 190.800781 76.632812 191.523438 76.132812 192.230469 75.644531 C 192.066406 75.527344 191.84375 75.382812 191.628906 75.226562 C 190.871094 74.667969 190.894531 74.691406 190.183594 75.324219 C 189.894531 75.585938 189.484375 75.710938 189.140625 75.917969 C 188.023438 76.59375 186.925781 77.292969 185.796875 77.949219 C 185.347656 78.210938 184.839844 78.359375 184.375 78.589844 C 183.433594 79.046875 182.503906 79.539062 181.5625 79.992188 C 180.300781 80.59375 179.027344 81.175781 177.753906 81.753906 C 177.019531 82.085938 176.292969 82.445312 175.53125 82.695312 C 175.074219 82.847656 174.566406 83.132812 174.058594 82.722656 C 174 82.675781 173.8125 82.78125 173.683594 82.8125 C 172.996094 82.976562 172.8125 82.875 172.53125 82.109375 C 173 81.996094 173.519531 81.992188 173.902344 81.761719 C 174.890625 81.15625 175.988281 81.019531 177.082031 80.820312 C 177.527344 80.734375 177.960938 80.542969 178.375 80.347656 C 180.625 79.300781 182.914062 78.328125 184.945312 76.863281 C 186.457031 75.773438 188.03125 74.773438 189.570312 73.71875 C 189.890625 73.5 190.167969 73.226562 190.460938 72.964844 C 191.132812 72.371094 191.289062 72.335938 191.972656 72.890625 C 192.546875 73.359375 193.058594 73.90625 193.621094 74.390625 C 193.734375 74.488281 193.976562 74.539062 194.117188 74.492188 C 194.890625 74.253906 195.417969 73.703125 195.882812 73.058594 C 196.117188 72.730469 196.464844 72.480469 196.761719 72.191406 C 196.996094 71.960938 197.234375 71.738281 197.449219 71.492188 C 197.867188 71.023438 198.289062 70.558594 198.671875 70.0625 C 199.203125 69.375 199.707031 68.660156 200.21875 67.949219 C 200.277344 67.875 200.28125 67.726562 200.347656 67.699219 C 201.402344 67.3125 201.691406 66.3125 202.132812 65.445312 C 202.648438 64.441406 203.097656 63.398438 203.628906 62.40625 C 203.886719 61.929688 204.40625 61.5625 204.566406 61.070312 C 204.851562 60.179688 205.511719 59.898438 206.269531 59.574219 C 207.519531 59.035156 208.710938 58.359375 209.933594 57.761719 C 210.289062 57.585938 210.667969 57.460938 211.054688 57.3125 C 209.753906 56.246094 208.464844 55.195312 207.179688 54.140625 C 207.148438 54.167969 207.121094 54.199219 207.097656 54.230469 C 207.371094 54.792969 207.675781 55.335938 207.90625 55.914062 C 208.007812 56.160156 207.964844 56.464844 207.996094 56.859375 C 207.679688 57.1875 207.402344 57.136719 207.148438 56.617188 C 206.710938 55.726562 206.332031 54.78125 205.765625 53.980469 C 204.984375 52.875 204.050781 51.875 203.164062 50.847656 C 203.050781 50.710938 202.8125 50.636719 202.625 50.625 C 202.128906 50.59375 201.628906 50.617188 200.996094 50.617188 C 201.203125 50.945312 201.355469 51.191406 201.507812 51.433594 C 202.171875 52.492188 202.820312 53.5625 203.511719 54.609375 C 204.078125 55.460938 204.703125 56.28125 205.273438 57.128906 C 205.371094 57.273438 205.386719 57.53125 205.335938 57.703125 C 205.238281 58.035156 205.035156 58.007812 204.84375 57.746094 C 204.425781 57.179688 204.050781 56.570312 203.574219 56.058594 C 203.082031 55.539062 202.492188 55.117188 201.839844 54.714844 C 202.007812 55.136719 202.214844 55.546875 202.328125 55.984375 C 202.546875 56.839844 202.765625 57.707031 202.871094 58.582031 C 202.902344 58.835938 202.539062 59.136719 202.359375 59.414062 C 202.28125 59.398438 202.203125 59.378906 202.125 59.359375 C 202.007812 58.804688 201.914062 58.25 201.761719 57.707031 C 201.453125 56.582031 201.261719 55.390625 200.75 54.359375 C 200.316406 53.492188 199.507812 52.804688 198.847656 52.050781 C 198.195312 51.316406 197.449219 50.660156 196.871094 49.871094 C 196.375 49.191406 195.828125 48.816406 194.984375 48.847656 C 194.28125 48.875 193.570312 48.855469 192.785156 48.855469 C 192.832031 49.152344 192.8125 49.433594 192.921875 49.648438 C 193.359375 50.523438 193.785156 51.410156 194.320312 52.226562 C 194.792969 52.941406 195.398438 53.574219 195.953125 54.234375 C 196.25 54.585938 196.578125 54.902344 196.867188 55.253906 C 196.972656 55.382812 196.996094 55.578125 197.054688 55.742188 C 197.003906 55.792969 196.949219 55.84375 196.898438 55.894531 C 196.257812 55.5 195.59375 55.136719 194.980469 54.707031 C 193.605469 53.742188 192.953125 52.21875 192.105469 50.859375 C 191.371094 49.683594 190.714844 48.457031 189.992188 47.277344 C 189.511719 46.496094 188.835938 46.035156 187.871094 45.894531 C 186.769531 45.730469 185.933594 45.007812 185.179688 44.222656 C 184.753906 43.78125 184.355469 43.3125 183.855469 42.757812 C 183.347656 43.65625 182.859375 44.46875 182.425781 45.316406 C 182.144531 45.859375 181.9375 46.445312 181.726562 47.023438 C 181.539062 47.527344 181.484375 48.109375 181.195312 48.535156 C 180.5 49.574219 180.222656 50.777344 179.699219 51.878906 C 179.332031 52.652344 179.015625 53.449219 178.675781 54.234375 C 179.066406 54.234375 179.480469 54.332031 179.820312 54.21875 C 180.945312 53.832031 182.042969 53.375 182.90625 52.5 C 183.5625 51.835938 183.632812 51.863281 184.316406 52.578125 C 184.867188 53.148438 185.441406 53.699219 185.984375 54.277344 C 186.152344 54.453125 186.273438 54.679688 186.378906 54.902344 C 186.734375 55.664062 187.511719 55.785156 188.160156 56.097656 C 188.554688 56.292969 188.992188 56.417969 189.351562 56.664062 C 190.1875 57.234375 191.121094 57.402344 192.101562 57.480469 C 192.433594 57.503906 192.765625 57.617188 193.085938 57.71875 C 194.332031 58.105469 195.574219 58.496094 196.8125 58.890625 C 197.050781 58.96875 197.273438 59.070312 197.496094 59.15625 C 197.328125 59.988281 197.292969 59.988281 196.476562 59.859375 C 195.902344 59.769531 195.3125 59.808594 194.734375 59.722656 C 193.195312 59.5 191.65625 59.242188 190.117188 59 C 190.003906 58.984375 189.882812 59.011719 189.539062 59.027344 C 189.957031 59.53125 190.257812 59.933594 190.601562 60.289062 C 190.984375 60.683594 191.609375 60.886719 191.574219 61.601562 C 191.570312 61.679688 191.78125 61.753906 191.875 61.851562 C 192.429688 62.421875 193.039062 62.949219 193.496094 63.589844 C 193.699219 63.875 193.550781 64.390625 193.621094 64.796875 C 193.707031 65.316406 193.832031 65.835938 193.976562 66.34375 C 194.203125 67.144531 194.457031 67.933594 194.695312 68.730469 C 194.632812 68.777344 194.574219 68.828125 194.507812 68.878906 C 194.285156 68.671875 194.035156 68.484375 193.847656 68.25 C 193.515625 67.835938 193.207031 67.394531 192.914062 66.949219 C 192.476562 66.289062 192.082031 65.605469 191.628906 64.957031 C 191.449219 64.703125 191.171875 64.507812 190.914062 64.316406 C 190.695312 64.152344 190.375 64.082031 190.207031 63.875 C 189.539062 63.0625 188.652344 62.554688 187.703125 62.203125 C 186.609375 61.804688 185.625 62.25 184.773438 62.929688 C 184.429688 63.207031 184.308594 63.261719 184.050781 62.851562 C 183.746094 62.359375 183.269531 61.976562 182.980469 61.476562 C 182.472656 60.597656 182.054688 59.671875 181.601562 58.761719 C 181.574219 58.707031 181.519531 58.644531 181.53125 58.601562 C 181.703125 58 181.886719 57.402344 181.9375 56.746094 C 181.890625 56.851562 181.855469 56.964844 181.789062 57.058594 C 181.46875 57.519531 181.132812 57.972656 180.8125 58.429688 C 180.738281 58.539062 180.691406 58.660156 180.640625 58.78125 C 180.097656 60.085938 180.074219 61.480469 179.917969 62.855469 C 179.847656 63.457031 179.582031 64.042969 179.910156 64.644531 C 179.941406 64.695312 179.878906 64.820312 179.828125 64.886719 C 179.15625 65.757812 178.449219 66.597656 177.820312 67.496094 C 177.394531 68.109375 177.125 68.832031 176.710938 69.460938 C 176.066406 70.433594 175.34375 71.363281 174.6875 72.332031 C 174.316406 72.875 174.011719 73.46875 173.65625 74.027344 C 173.597656 74.121094 173.4375 74.191406 173.320312 74.199219 C 172.613281 74.257812 171.902344 74.296875 171.195312 74.34375 C 170.59375 74.375 169.988281 74.375 169.394531 74.464844 C 169.152344 74.5 168.90625 74.6875 168.714844 74.863281 C 168.363281 75.1875 168.066406 75.566406 167.722656 75.894531 C 166.394531 77.148438 164.96875 78.320312 163.746094 79.667969 C 162.9375 80.558594 161.964844 81.132812 160.996094 81.757812 C 160.359375 82.167969 159.71875 82.582031 159.117188 83.042969 C 158.625 83.417969 158.023438 83.578125 157.476562 83.289062 C 158.054688 82.851562 158.585938 82.410156 159.152344 82.023438 C 159.515625 81.773438 159.960938 81.636719 160.316406 81.378906 C 160.585938 81.179688 160.753906 80.851562 161 80.613281 C 162.574219 79.105469 164.191406 77.636719 165.726562 76.089844 C 166.417969 75.394531 166.960938 74.550781 167.558594 73.765625 C 167.726562 73.542969 167.816406 73.511719 168.160156 73.53125 C 169.6875 73.628906 171.203125 73.480469 172.46875 72.441406 C 172.542969 72.382812 172.601562 72.292969 172.6875 72.253906 C 173.222656 72.015625 173.597656 71.667969 173.933594 71.144531 C 174.597656 70.117188 175.449219 69.210938 176.195312 68.234375 C 176.816406 67.417969 177.414062 66.582031 177.980469 65.726562 C 178.125 65.507812 178.140625 65.191406 178.175781 64.914062 C 178.234375 64.429688 178.269531 63.949219 178.328125 63.285156 C 177.714844 64.269531 177.171875 65.085938 176.683594 65.9375 C 176.230469 66.742188 175.839844 67.582031 175.414062 68.398438 C 174.914062 69.367188 173.988281 69.902344 173.183594 70.554688 C 172.898438 70.785156 172.597656 71 172.265625 71.25 C 171.839844 70.855469 171.425781 71.09375 170.988281 71.449219 C 170.878906 71.246094 170.796875 71.089844 170.765625 71.03125 C 171.742188 70.230469 172.800781 69.601562 173.539062 68.707031 C 174.261719 67.828125 174.660156 66.6875 175.109375 65.5625 C 174.785156 65.828125 174.488281 66.140625 174.128906 66.347656 C 173.675781 66.617188 173.175781 66.808594 172.6875 67.015625 C 171.839844 67.375 170.933594 67.628906 170.15625 68.101562 C 169.082031 68.757812 168.039062 69.496094 167.117188 70.34375 C 166.417969 70.980469 165.9375 71.851562 165.335938 72.601562 C 164.976562 73.050781 164.410156 73.394531 164.21875 73.898438 C 163.90625 74.714844 163.253906 75.191406 162.730469 75.800781 C 162.0625 76.585938 161.386719 77.363281 160.695312 78.128906 C 159.703125 79.230469 158.675781 80.300781 157.703125 81.414062 C 157.035156 82.175781 156.476562 83.042969 155.777344 83.773438 C 155.175781 84.398438 154.46875 84.925781 153.761719 85.4375 C 153.5 85.628906 153.113281 85.664062 152.78125 85.742188 C 152.707031 85.761719 152.546875 85.660156 152.542969 85.609375 C 152.539062 85.515625 152.597656 85.390625 152.675781 85.328125 C 153.398438 84.726562 154.152344 84.164062 154.84375 83.527344 C 155.300781 83.109375 155.671875 82.601562 156.066406 82.121094 C 156.917969 81.078125 157.785156 80.042969 158.609375 78.976562 C 159.257812 78.136719 159.832031 77.242188 160.480469 76.402344 C 161.074219 75.636719 161.765625 74.945312 162.34375 74.167969 C 163.023438 73.257812 163.613281 72.28125 164.265625 71.347656 C 164.464844 71.0625 164.484375 70.660156 165.039062 70.578125 C 165.335938 70.53125 165.542969 69.871094 165.785156 69.484375 C 165.847656 69.382812 165.855469 69.203125 165.941406 69.160156 C 166.828125 68.714844 167.734375 68.296875 168.625 67.851562 C 168.757812 67.785156 168.933594 67.648438 168.953125 67.519531 C 169.101562 66.625 169.253906 65.726562 169.3125 64.824219 C 169.335938 64.449219 169.125 64.054688 168.925781 63.675781 C 169.710938 62.101562 170.835938 60.597656 170.960938 58.726562 C 171.078125 56.96875 171.84375 55.289062 171.628906 53.332031 C 170.992188 53.785156 170.699219 54.1875 170.695312 54.832031 C 170.6875 55.3125 170.628906 55.832031 170.425781 56.25 C 169.921875 57.296875 169.925781 58.394531 169.902344 59.503906 C 169.890625 60.003906 169.804688 60.5 169.757812 61 C 169.1875 60.871094 168.746094 60.359375 168.746094 59.851562 C 168.738281 59.023438 168.746094 58.199219 168.746094 57.34375 C 166.824219 57.707031 165.445312 59.136719 163.601562 60.0625 C 164.722656 60.40625 165.230469 61.078125 165.628906 61.996094 C 165.980469 62.792969 166.675781 63.429688 167.226562 64.152344 C 166.855469 64.757812 166.695312 64.761719 166.207031 64.191406 C 165.367188 63.21875 164.570312 62.195312 163.632812 61.320312 C 163.242188 60.957031 162.550781 60.910156 161.984375 60.757812 C 161.433594 60.609375 160.867188 60.5 160.300781 60.386719 C 159.378906 60.195312 158.457031 60.007812 157.53125 59.832031 C 157.15625 59.761719 156.914062 60.117188 157.015625 60.535156 C 157.042969 60.636719 156.96875 60.761719 156.957031 60.828125 C 156.957031 61.273438 156.949219 61.683594 156.957031 62.097656 C 156.96875 62.613281 157.027344 63.125 156.976562 63.632812 C 156.957031 63.839844 156.703125 64.019531 156.527344 64.199219 C 156.675781 64.3125 156.988281 64.476562 156.601562 64.882812 C 156.535156 64.953125 156.722656 65.277344 156.851562 65.640625 C 156.636719 65.949219 156.34375 66.4375 155.988281 66.871094 C 155.851562 67.035156 155.570312 67.078125 155.226562 67.238281 C 155.332031 67.300781 155.472656 67.386719 155.738281 67.550781 C 155.363281 67.699219 155.078125 67.8125 154.800781 67.925781 C 154.847656 67.953125 154.9375 68 155.136719 68.113281 C 154.808594 68.324219 154.5 68.460938 154.265625 68.679688 C 153.929688 68.996094 153.664062 69.386719 153.332031 69.710938 C 153.066406 69.976562 152.773438 70.230469 152.453125 70.414062 C 151.785156 70.800781 151.941406 71.375 152.011719 71.960938 C 152.046875 72.199219 151.96875 72.457031 152.011719 72.695312 C 152.03125 72.808594 152.21875 72.894531 152.453125 73.101562 C 151.96875 73.503906 151.4375 73.824219 151.074219 74.277344 C 150.628906 74.832031 150.050781 75.195312 149.535156 75.644531 C 148.9375 76.171875 148.28125 76.636719 147.683594 77.164062 C 146.800781 77.941406 145.945312 78.75 145.074219 79.542969 C 144.988281 79.625 144.855469 79.753906 144.777344 79.730469 C 144.207031 79.570312 143.828125 79.902344 143.496094 80.25 C 143.191406 80.566406 142.925781 80.722656 142.445312 80.765625 C 141.976562 80.808594 141.546875 81.242188 141.101562 81.503906 C 140.949219 81.589844 140.808594 81.679688 140.667969 81.765625 C 140.289062 81.371094 140.347656 80.945312 140.796875 80.59375 C 141.789062 79.816406 142.800781 79.070312 143.757812 78.253906 C 144.484375 77.632812 145.238281 77 145.789062 76.234375 C 146.519531 75.230469 147.089844 74.101562 147.679688 73.003906 C 148.085938 72.242188 148.441406 71.449219 148.761719 70.648438 C 148.945312 70.179688 149.023438 69.667969 149.195312 68.992188 C 148.558594 69.511719 148.085938 70.3125 147.296875 69.433594 C 148.304688 69.265625 148.933594 68.574219 149.617188 67.945312 C 150.363281 67.257812 150.914062 66.480469 151.050781 65.425781 C 150.5625 65.691406 150.101562 65.9375 149.644531 66.1875 C 149.609375 66.203125 149.546875 66.210938 149.539062 66.234375 C 149.253906 67.226562 148.160156 67.210938 147.5625 67.816406 C 147.195312 68.191406 146.832031 68.585938 146.417969 68.90625 C 146.136719 69.121094 145.769531 69.222656 145.441406 69.375 C 145.167969 69.503906 144.890625 69.628906 144.625 69.867188 C 145.269531 69.945312 145.917969 70.003906 146.558594 70.105469 C 147.128906 70.199219 147.648438 70.386719 147.699219 71.152344 C 147.570312 71.140625 147.445312 71.136719 147.324219 71.121094 C 147.050781 71.089844 146.730469 70.714844 146.519531 71.21875 C 146.507812 71.246094 146.445312 71.257812 146.40625 71.253906 C 145.972656 71.1875 145.496094 71.203125 145.109375 71.027344 C 144.5625 70.785156 144.054688 70.558594 143.441406 70.851562 C 143.492188 70.953125 143.550781 71.078125 143.613281 71.214844 C 143.523438 71.234375 143.453125 71.273438 143.414062 71.253906 C 142.273438 70.710938 141.121094 71.027344 139.976562 71.207031 C 139.9375 71.214844 139.898438 71.253906 139.867188 71.246094 C 138.5625 70.933594 138.152344 72.046875 137.476562 72.738281 C 136.847656 73.386719 136.242188 74.066406 135.570312 74.671875 C 135.226562 74.984375 135.066406 75.1875 135.582031 75.480469 C 134.765625 75.96875 133.96875 76.394531 133.222656 76.894531 C 132.515625 77.371094 131.867188 77.929688 131.183594 78.4375 C 131.003906 78.574219 130.796875 78.683594 130.589844 78.773438 C 130.261719 78.917969 129.886719 78.976562 129.589844 79.167969 C 128.726562 79.722656 127.6875 79.625 126.769531 79.988281 C 126.09375 80.253906 125.390625 80.457031 124.683594 80.636719 C 124.519531 80.683594 124.304688 80.535156 124.113281 80.476562 C 124.230469 80.320312 124.3125 80.074219 124.464844 80.019531 C 125.835938 79.546875 127.128906 78.871094 128.59375 78.636719 C 129.128906 78.550781 129.621094 78.089844 130.105469 77.761719 C 130.757812 77.3125 131.457031 76.902344 132.003906 76.339844 C 132.617188 75.710938 133.089844 74.941406 133.597656 74.214844 C 133.726562 74.03125 133.785156 73.792969 133.855469 73.578125 C 133.933594 73.332031 134.101562 72.902344 134.035156 72.863281 C 133.726562 72.664062 133.355469 72.503906 132.996094 72.480469 C 132.847656 72.472656 132.675781 72.835938 132.429688 73.128906 C 132.132812 73.167969 131.605469 72.519531 131.246094 73.269531 C 130.515625 72.691406 130.527344 72.707031 129.714844 73.1875 C 128.714844 73.777344 127.679688 74.316406 126.679688 74.914062 C 126.25 75.167969 125.878906 75.527344 125.453125 75.792969 C 125.203125 75.945312 124.898438 76.03125 124.609375 76.105469 C 123.628906 76.34375 122.640625 76.570312 121.65625 76.792969 C 121.53125 76.820312 121.34375 76.824219 121.257812 76.753906 C 120.644531 76.246094 119.910156 76.160156 119.160156 76.089844 C 119.046875 76.078125 118.941406 75.988281 118.835938 75.933594 C 118.484375 75.753906 118.128906 75.578125 117.785156 75.386719 C 117.628906 75.296875 117.488281 75.175781 117.339844 75.066406 C 117.371094 75 117.402344 74.929688 117.429688 74.863281 C 117.914062 74.953125 118.40625 75.027344 118.886719 75.140625 C 119.726562 75.335938 120.554688 75.675781 121.398438 75.71875 C 122.085938 75.753906 122.824219 75.53125 123.476562 75.273438 C 124.597656 74.828125 125.730469 74.355469 126.753906 73.726562 C 127.910156 73.015625 128.972656 72.136719 130.046875 71.292969 C 130.648438 70.824219 131.164062 70.246094 131.761719 69.773438 C 132.042969 69.550781 132.398438 69.382812 132.773438 69.746094 C 132.929688 69.902344 133.21875 70 133.441406 69.984375 C 135.363281 69.875 136.886719 68.769531 138.464844 67.855469 C 139.472656 67.269531 140.371094 67.003906 141.359375 67.847656 C 141.722656 68.15625 142.140625 68.425781 142.574219 68.613281 C 142.804688 68.707031 143.136719 68.605469 143.410156 68.542969 C 143.691406 68.484375 143.945312 68.316406 144.226562 68.269531 C 144.933594 68.152344 145.269531 67.53125 145.800781 67.179688 C 146.652344 66.613281 147.539062 66.089844 148.382812 65.511719 C 148.589844 65.371094 148.714844 65.101562 148.875 64.894531 C 148.890625 64.871094 148.894531 64.8125 148.90625 64.8125 C 149.71875 64.75 149.785156 63.925781 150.242188 63.503906 C 150.488281 63.273438 150.789062 63.105469 151.058594 62.910156 C 151.527344 62.566406 151.898438 62.203125 152.035156 61.566406 C 152.113281 61.210938 152.53125 60.894531 152.855469 60.632812 C 153.578125 60.035156 154.371094 59.519531 155.074219 58.902344 C 155.394531 58.625 155.644531 58.21875 155.8125 57.820312 C 156.035156 57.300781 156.597656 57.363281 156.789062 57.46875 C 157.25 57.726562 157.816406 57.6875 158.238281 58.234375 C 158.585938 58.691406 159.4375 58.765625 160.070312 58.988281 C 160.613281 59.179688 161.164062 59.347656 161.71875 59.496094 C 161.875 59.539062 162.109375 59.527344 162.222656 59.4375 C 163.132812 58.71875 164.066406 58.019531 164.898438 57.21875 C 165.480469 56.65625 165.902344 55.929688 166.417969 55.296875 C 166.679688 54.980469 166.992188 54.707031 167.285156 54.414062 C 167.347656 54.347656 167.414062 54.292969 167.472656 54.222656 C 167.941406 53.679688 168.5 53.191406 168.851562 52.582031 C 169.175781 52.03125 169.902344 51.84375 170.007812 51.117188 C 170.046875 50.851562 170.773438 50.816406 171.035156 50.972656 C 171.199219 51.070312 171.433594 51.128906 171.625 51.101562 C 172.640625 50.960938 173.402344 50.433594 174.097656 49.660156 C 174.75 48.933594 175.625 48.414062 176.363281 47.761719 C 176.882812 47.308594 177.296875 46.738281 177.832031 46.3125 C 178.378906 45.875 178.675781 45.25 179.152344 44.769531 C 179.828125 44.085938 180.546875 43.445312 181.203125 42.742188 C 181.648438 42.261719 182.007812 41.703125 182.425781 41.199219 C 182.878906 40.664062 183.277344 40.058594 184.046875 39.8125 C 184.785156 40.628906 185.507812 41.535156 186.347656 42.316406 C 187.121094 43.042969 188.011719 43.644531 188.875 44.273438 C 189.609375 44.804688 190.390625 45.277344 191.128906 45.808594 C 191.597656 46.140625 192.078125 46.058594 192.578125 45.976562 C 192.9375 45.914062 193.300781 45.851562 193.660156 45.808594 C 194.011719 45.761719 194.324219 45.808594 194.46875 46.210938 C 194.492188 46.289062 194.605469 46.367188 194.6875 46.378906 C 195.585938 46.535156 196.203125 47.246094 197.003906 47.554688 C 197.707031 47.828125 198.488281 47.9375 199.246094 48.03125 C 200.113281 48.140625 200.964844 48.230469 201.773438 48.621094 C 201.996094 48.726562 202.34375 48.699219 202.589844 48.613281 C 203.175781 48.402344 203.386719 48.894531 203.667969 49.167969 C 204.34375 49.824219 204.90625 50.605469 205.613281 51.21875 C 206.714844 52.167969 207.902344 53.023438 209.050781 53.914062 C 209.949219 54.609375 210.859375 55.285156 211.753906 55.984375 C 212.058594 56.222656 212.324219 56.242188 212.667969 56.054688 C 213.386719 55.667969 214.125 55.316406 214.851562 54.941406 C 215.019531 54.851562 215.175781 54.726562 215.316406 54.597656 C 215.800781 54.144531 216.433594 54.167969 217.027344 54.058594 C 217.136719 54.039062 217.242188 53.992188 217.378906 53.945312 C 217.546875 54.191406 217.691406 54.46875 217.902344 54.683594 C 218.132812 54.910156 218.457031 55.046875 218.675781 55.277344 C 219.027344 55.640625 219.289062 56.085938 219.644531 56.441406 C 220.371094 57.167969 221.121094 57.878906 221.878906 58.570312 C 223.320312 59.882812 225.128906 60.613281 226.761719 61.617188 C 227.078125 61.8125 227.558594 61.871094 227.9375 61.8125 C 229.515625 61.566406 230.972656 60.976562 232.324219 60.125 C 232.582031 59.960938 232.902344 59.886719 233.144531 59.703125 C 233.496094 59.429688 233.792969 59.085938 234.128906 58.792969 C 234.265625 58.675781 234.457031 58.613281 234.625 58.539062 C 235.027344 58.367188 235.421875 58.105469 235.84375 58.054688 C 236.5 57.980469 237.183594 58.007812 237.847656 58.085938 C 238.691406 58.179688 239.550781 58.292969 240.367188 58.53125 C 241.394531 58.828125 242.367188 59.308594 243.394531 59.621094 C 244.453125 59.945312 245.535156 60.203125 246.625 60.410156 C 247.117188 60.503906 247.445312 60.632812 247.707031 61.109375 C 247.933594 61.53125 248.101562 62.0625 248.667969 62.265625 C 248.835938 62.328125 248.902344 62.644531 249.042969 62.820312 C 249.351562 63.191406 249.664062 63.554688 249.992188 63.90625 C 250.253906 64.175781 250.554688 64.40625 250.8125 64.679688 C 251.207031 65.097656 251.507812 65.605469 252.128906 65.769531 C 252.304688 65.816406 252.414062 66.078125 252.582031 66.203125 C 253.175781 66.648438 253.78125 67.074219 254.382812 67.511719 C 254.445312 67.554688 254.515625 67.597656 254.566406 67.65625 C 255.261719 68.53125 256.300781 68.824219 257.25 69.300781 C 258.398438 69.875 259.621094 70.160156 260.832031 70.503906 C 261.40625 70.667969 261.996094 70.761719 262.5625 70.941406 C 262.800781 71.015625 262.996094 71.226562 263.210938 71.375 L 263.144531 71.5625 C 262.964844 71.578125 262.773438 71.636719 262.601562 71.597656 C 260.523438 71.121094 258.464844 70.578125 256.496094 69.734375 C 255.578125 69.34375 254.597656 69.121094 253.664062 68.769531 C 252.90625 68.484375 252.1875 68.09375 251.433594 67.804688 C 250.113281 67.296875 249.152344 66.300781 248.105469 65.414062 C 247.511719 64.914062 246.953125 64.363281 246.328125 63.898438 C 245.902344 63.582031 245.363281 63.421875 244.929688 63.105469 C 244.082031 62.492188 243.25 62.867188 242.398438 63.035156 C 242.203125 63.074219 241.988281 63.066406 241.789062 63.03125 C 241.398438 62.964844 241.003906 62.886719 240.632812 62.757812 C 240.421875 62.683594 240.25 62.496094 239.972656 62.292969 C 240.9375 62.121094 241.75 61.972656 242.5625 61.828125 C 242.574219 61.777344 242.582031 61.730469 242.589844 61.679688 C 242.402344 61.574219 242.222656 61.417969 242.019531 61.367188 C 240.882812 61.078125 239.742188 60.78125 238.59375 60.566406 C 237.910156 60.4375 237.234375 60.492188 236.585938 60.886719 C 235.382812 61.609375 234.148438 62.285156 232.898438 62.925781 C 232.226562 63.273438 231.496094 63.515625 230.71875 63.835938 C 231.058594 63.96875 231.339844 64.160156 231.636719 64.183594 C 232.835938 64.285156 233.777344 64.980469 234.804688 65.476562 C 235.085938 65.609375 235.332031 65.804688 235.617188 65.921875 C 236.851562 66.425781 237.234375 67.667969 237.96875 68.601562 C 238.871094 69.757812 239.617188 71.039062 240.804688 71.96875 C 241.640625 72.625 242.367188 73.421875 243.136719 74.164062 C 243.820312 74.824219 244.722656 75 245.570312 75.304688 C 245.800781 75.386719 246.296875 75.269531 246.164062 75.8125 L 246.164062 75.808594 " fill-opacity="1" fill-rule="nonzero"/><g clip-path="url(#cacf444526)"><path fill="#c6996f" d="M 128.875 63.027344 L 128.875 62.503906 L 144.816406 62.503906 L 144.816406 63.027344 Z M 228.699219 63.027344 L 228.699219 62.503906 L 244.640625 62.503906 L 244.640625 63.027344 Z M 195.902344 107.039062 L 195.382812 107.117188 L 192.609375 91.464844 L 193.132812 91.386719 Z M 204.371094 104.722656 L 203.875 104.902344 L 198.4375 89.980469 L 198.933594 89.796875 Z M 222.113281 97.21875 L 221.722656 97.558594 L 211.476562 85.371094 L 211.871094 85.03125 Z M 230.921875 90.996094 L 230.582031 91.414062 L 218.375 81.203125 L 218.714844 80.8125 Z M 242.46875 75.320312 L 242.289062 75.8125 L 227.3125 70.371094 L 227.496094 69.875 Z M 131.488281 75.761719 L 131.304688 75.265625 L 146.277344 69.847656 L 146.488281 70.316406 Z M 143.195312 91.359375 L 142.855469 90.96875 L 155.058594 80.761719 L 155.398438 81.152344 Z M 152.054688 97.53125 L 151.664062 97.195312 L 161.90625 85.03125 L 162.296875 85.371094 Z M 169.875 104.878906 L 169.378906 104.695312 L 174.839844 89.773438 L 175.335938 89.953125 Z M 178.394531 107.117188 L 177.871094 107.011719 L 180.640625 91.359375 L 181.164062 91.464844 Z M 219.527344 111.648438 L 219.082031 111.910156 L 215.710938 106.074219 L 216.15625 105.816406 Z M 215.605469 104.902344 L 215.160156 105.164062 L 211.035156 98.054688 L 211.476562 97.792969 Z M 210.851562 96.699219 L 210.40625 96.960938 L 205.230469 88.027344 L 205.675781 87.765625 Z M 246.101562 89.667969 L 245.839844 90.109375 L 239.988281 86.726562 L 240.25 86.28125 Z M 239.332031 85.761719 L 239.074219 86.203125 L 231.9375 82.117188 L 232.199219 81.671875 Z M 231.101562 81.023438 L 230.839844 81.464844 L 221.878906 76.308594 L 222.140625 75.867188 Z M 127.933594 90.058594 L 127.671875 89.617188 L 133.527344 86.257812 L 133.789062 86.699219 Z M 134.703125 86.179688 L 134.441406 85.734375 L 141.574219 81.621094 L 141.835938 82.0625 Z M 142.933594 81.4375 L 142.671875 80.996094 L 151.636719 75.839844 L 151.898438 76.28125 Z M 154.695312 111.882812 L 154.25 111.621094 L 157.648438 105.789062 L 158.089844 106.050781 Z M 158.613281 105.136719 L 158.167969 104.878906 L 162.296875 97.765625 L 162.742188 98.027344 Z M 163.371094 96.933594 L 162.925781 96.671875 L 168.097656 87.742188 L 168.542969 88 Z M 187.148438 118.785156 L 186.625 118.785156 L 186.625 112.039062 L 187.148438 112.039062 Z M 187.148438 110.972656 L 186.625 110.972656 L 186.625 102.742188 L 187.148438 102.742188 Z M 187.148438 101.492188 L 186.625 101.492188 L 186.625 91.179688 L 187.148438 91.179688 Z M 193.132812 34.429688 L 192.609375 34.351562 L 195.378906 18.703125 L 195.902344 18.78125 Z M 198.933594 36.019531 L 198.4375 35.835938 L 203.898438 20.914062 L 204.394531 21.097656 Z M 211.871094 40.757812 L 211.476562 40.421875 L 221.722656 28.257812 L 222.113281 28.597656 Z M 218.714844 45.03125 L 218.375 44.640625 L 230.578125 34.429688 L 230.917969 34.820312 Z M 227.234375 55.421875 L 227.050781 54.925781 L 242.023438 49.484375 L 242.207031 49.980469 Z M 146.722656 54.925781 L 146.539062 55.421875 L 131.566406 49.980469 L 131.75 49.484375 Z M 155.398438 44.640625 L 155.058594 45.03125 L 142.855469 34.820312 L 143.195312 34.429688 Z M 162.296875 40.421875 L 161.90625 40.757812 L 151.664062 28.597656 L 152.054688 28.257812 Z M 175.339844 35.835938 L 174.839844 36.019531 L 169.40625 21.097656 L 169.902344 20.914062 Z M 181.164062 34.328125 L 180.644531 34.40625 L 177.871094 18.78125 L 178.394531 18.703125 Z M 216.15625 20.003906 L 215.710938 19.742188 L 219.082031 13.910156 L 219.527344 14.167969 Z M 211.503906 28.023438 L 211.058594 27.765625 L 215.1875 20.65625 L 215.632812 20.914062 Z M 205.675781 38.078125 L 205.234375 37.816406 L 210.433594 28.882812 L 210.878906 29.144531 Z M 240.25 39.535156 L 239.988281 39.09375 L 245.839844 35.707031 L 246.101562 36.148438 Z M 232.199219 44.171875 L 231.9375 43.726562 L 239.074219 39.613281 L 239.335938 40.054688 Z M 222.113281 49.980469 L 221.851562 49.535156 L 230.816406 44.378906 L 231.078125 44.824219 Z M 133.789062 39.09375 L 133.527344 39.535156 L 127.675781 36.175781 L 127.9375 35.734375 Z M 141.863281 43.726562 L 141.601562 44.171875 L 134.46875 40.054688 L 134.730469 39.613281 Z M 151.925781 49.511719 L 151.664062 49.953125 L 142.699219 44.796875 L 142.960938 44.355469 Z M 158.09375 19.742188 L 157.648438 20.003906 L 154.25 14.167969 L 154.695312 13.910156 Z M 162.742188 27.765625 L 162.300781 28.023438 L 158.171875 20.914062 L 158.613281 20.65625 Z M 168.570312 37.816406 L 168.125 38.078125 L 162.953125 29.144531 L 163.398438 28.882812 Z M 187.148438 13.777344 L 186.628906 13.777344 L 186.628906 7.035156 L 187.148438 7.035156 Z M 187.148438 23.050781 L 186.628906 23.050781 L 186.628906 14.820312 L 187.148438 14.820312 Z M 187.148438 34.640625 L 186.628906 34.640625 L 186.628906 24.300781 L 187.148438 24.300781 L 187.148438 34.640625 " fill-opacity="1" fill-rule="nonzero"/></g><g fill="#c6996f" fill-opacity="1"><g transform="translate(85.694528, 123.462041)"><g><path d="M 2.59375 0 L 2.59375 -28.890625 L 5.90625 -28.890625 L 5.90625 -2.640625 L 12.296875 -2.640625 L 12.296875 0 Z M 2.59375 0 "/></g></g></g><g fill="#c6996f" fill-opacity="1"><g transform="translate(98.61092, 123.462041)"><g><path d="M 5.90625 -13.078125 L 5.90625 -2.640625 L 13.078125 -2.640625 L 13.078125 0 L 2.59375 0 L 2.59375 -28.890625 L 12.953125 -28.890625 L 12.953125 -26.25 L 5.90625 -26.25 L 5.90625 -15.71875 L 12.34375 -15.71875 L 12.34375 -13.078125 Z M 5.90625 -13.078125 "/></g></g></g><g fill="#c6996f" fill-opacity="1"><g transform="translate(113.425572, 123.462041)"><g/></g></g><g fill="#c6996f" fill-opacity="1"><g transform="translate(119.36794, 123.462041)"><g><path d="M 14.9375 -20.265625 L 14.9375 -10.6875 C 14.9375 -6.613281 14.070312 -3.890625 12.34375 -2.515625 L 14.03125 2.3125 L 11.0625 2.3125 L 9.734375 -1.53125 C 9.460938 -1.46875 9.050781 -1.4375 8.5 -1.4375 C 6.40625 -1.4375 4.800781 -2.101562 3.6875 -3.4375 C 2.570312 -4.78125 2.015625 -7.195312 2.015625 -10.6875 L 2.015625 -20.265625 C 2.015625 -23.753906 2.570312 -26.164062 3.6875 -27.5 C 4.800781 -28.832031 6.394531 -29.5 8.46875 -29.5 C 10.550781 -29.5 12.148438 -28.832031 13.265625 -27.5 C 14.378906 -26.164062 14.9375 -23.753906 14.9375 -20.265625 Z M 11.671875 -10.0625 L 11.671875 -20.875 C 11.671875 -24.84375 10.613281 -26.828125 8.5 -26.828125 C 7.476562 -26.828125 6.6875 -26.398438 6.125 -25.546875 C 5.5625 -24.691406 5.28125 -23.132812 5.28125 -20.875 L 5.28125 -10.0625 C 5.28125 -7.8125 5.5625 -6.257812 6.125 -5.40625 C 6.6875 -4.550781 7.476562 -4.125 8.5 -4.125 L 8.828125 -4.125 L 6.6875 -10.484375 L 9.578125 -10.484375 L 11.09375 -6.03125 C 11.476562 -6.957031 11.671875 -8.300781 11.671875 -10.0625 Z M 11.671875 -10.0625 "/></g></g></g><g fill="#c6996f" fill-opacity="1"><g transform="translate(136.328441, 123.462041)"><g><path d="M 11.84375 -28.890625 L 15.109375 -28.890625 L 15.109375 -8.625 C 15.109375 -5.132812 14.550781 -2.71875 13.4375 -1.375 C 12.320312 -0.0390625 10.742188 0.625 8.703125 0.625 C 6.671875 0.625 5.097656 -0.0390625 3.984375 -1.375 C 2.867188 -2.71875 2.3125 -5.132812 2.3125 -8.625 L 2.3125 -28.890625 L 5.578125 -28.890625 L 5.578125 -8 C 5.578125 -5.769531 5.847656 -4.222656 6.390625 -3.359375 C 6.941406 -2.492188 7.707031 -2.0625 8.6875 -2.0625 C 9.664062 -2.0625 10.4375 -2.492188 11 -3.359375 C 11.5625 -4.222656 11.84375 -5.769531 11.84375 -8 Z M 11.84375 -28.890625 "/></g></g></g><g fill="#c6996f" fill-opacity="1"><g transform="translate(153.742877, 123.462041)"><g><path d="M 12.296875 0 L 11.015625 -7.515625 L 5.203125 -7.515625 L 3.96875 0 L 0.65625 0 L 5.9375 -28.890625 L 10.3125 -28.890625 L 15.59375 0 Z M 8.125 -24.71875 L 5.65625 -10.15625 L 10.5625 -10.15625 Z M 8.125 -24.71875 "/></g></g></g><g fill="#c6996f" fill-opacity="1"><g transform="translate(170.001853, 123.462041)"><g><path d="M 2.59375 0 L 2.59375 -28.890625 L 5.90625 -28.890625 L 5.90625 0 Z M 2.59375 0 "/></g></g></g><g fill="#c6996f" fill-opacity="1"><g transform="translate(178.502737, 123.462041)"><g/></g></g><g fill="#c6996f" fill-opacity="1"><g transform="translate(184.445105, 123.462041)"><g><path d="M 12.296875 0 L 11.015625 -7.515625 L 5.203125 -7.515625 L 3.96875 0 L 0.65625 0 L 5.9375 -28.890625 L 10.3125 -28.890625 L 15.59375 0 Z M 8.125 -24.71875 L 5.65625 -10.15625 L 10.5625 -10.15625 Z M 8.125 -24.71875 "/></g></g></g><g fill="#c6996f" fill-opacity="1"><g transform="translate(200.704081, 123.462041)"><g><path d="M 5.8125 0 L 2.59375 0 L 2.59375 -28.890625 L 6.03125 -28.890625 L 12.75 -7.765625 L 12.75 -28.890625 L 15.96875 -28.890625 L 15.96875 0 L 12.546875 0 L 5.8125 -21.09375 Z M 5.8125 0 "/></g></g></g><g fill="#c6996f" fill-opacity="1"><g transform="translate(219.273969, 123.462041)"><g><path d="M 0.53125 -26.25 L 0.53125 -28.890625 L 11.796875 -28.890625 L 11.796875 -26.25 L 7.796875 -26.25 L 7.796875 0 L 4.546875 0 L 4.546875 -26.25 Z M 0.53125 -26.25 "/></g></g></g><g fill="#c6996f" fill-opacity="1"><g transform="translate(231.612632, 123.462041)"><g><path d="M 2.59375 0 L 2.59375 -28.890625 L 5.90625 -28.890625 L 5.90625 0 Z M 2.59375 0 "/></g></g></g><g fill="#c6996f" fill-opacity="1"><g transform="translate(240.113523, 123.462041)"><g><path d="M 14.9375 -20.265625 L 14.9375 -10.6875 C 14.9375 -6.613281 14.070312 -3.890625 12.34375 -2.515625 L 14.03125 2.3125 L 11.0625 2.3125 L 9.734375 -1.53125 C 9.460938 -1.46875 9.050781 -1.4375 8.5 -1.4375 C 6.40625 -1.4375 4.800781 -2.101562 3.6875 -3.4375 C 2.570312 -4.78125 2.015625 -7.195312 2.015625 -10.6875 L 2.015625 -20.265625 C 2.015625 -23.753906 2.570312 -26.164062 3.6875 -27.5 C 4.800781 -28.832031 6.394531 -29.5 8.46875 -29.5 C 10.550781 -29.5 12.148438 -28.832031 13.265625 -27.5 C 14.378906 -26.164062 14.9375 -23.753906 14.9375 -20.265625 Z M 11.671875 -10.0625 L 11.671875 -20.875 C 11.671875 -24.84375 10.613281 -26.828125 8.5 -26.828125 C 7.476562 -26.828125 6.6875 -26.398438 6.125 -25.546875 C 5.5625 -24.691406 5.28125 -23.132812 5.28125 -20.875 L 5.28125 -10.0625 C 5.28125 -7.8125 5.5625 -6.257812 6.125 -5.40625 C 6.6875 -4.550781 7.476562 -4.125 8.5 -4.125 L 8.828125 -4.125 L 6.6875 -10.484375 L 9.578125 -10.484375 L 11.09375 -6.03125 C 11.476562 -6.957031 11.671875 -8.300781 11.671875 -10.0625 Z M 11.671875 -10.0625 "/></g></g></g><g fill="#c6996f" fill-opacity="1"><g transform="translate(257.074024, 123.462041)"><g><path d="M 11.84375 -28.890625 L 15.109375 -28.890625 L 15.109375 -8.625 C 15.109375 -5.132812 14.550781 -2.71875 13.4375 -1.375 C 12.320312 -0.0390625 10.742188 0.625 8.703125 0.625 C 6.671875 0.625 5.097656 -0.0390625 3.984375 -1.375 C 2.867188 -2.71875 2.3125 -5.132812 2.3125 -8.625 L 2.3125 -28.890625 L 5.578125 -28.890625 L 5.578125 -8 C 5.578125 -5.769531 5.847656 -4.222656 6.390625 -3.359375 C 6.941406 -2.492188 7.707031 -2.0625 8.6875 -2.0625 C 9.664062 -2.0625 10.4375 -2.492188 11 -3.359375 C 11.5625 -4.222656 11.84375 -5.769531 11.84375 -8 Z M 11.84375 -28.890625 "/></g></g></g><g fill="#c6996f" fill-opacity="1"><g transform="translate(274.488453, 123.462041)"><g><path d="M 5.90625 -13.078125 L 5.90625 -2.640625 L 13.078125 -2.640625 L 13.078125 0 L 2.59375 0 L 2.59375 -28.890625 L 12.953125 -28.890625 L 12.953125 -26.25 L 5.90625 -26.25 L 5.90625 -15.71875 L 12.34375 -15.71875 L 12.34375 -13.078125 Z M 5.90625 -13.078125 "/></g></g></g><g fill="#000000" fill-opacity="1"><g transform="translate(118.279616, 149.709203)"><g><path d="M -0.515625 1.035156 C 0.0625 1.003906 0.183594 0.851562 0.273438 0.394531 C 0.304688 0.335938 0.304688 0.242188 0.304688 0.0898438 C 0.335938 -0.121094 0.394531 -0.304688 0.425781 -0.515625 C 0.457031 -0.730469 0.515625 -0.941406 0.546875 -1.15625 C 0.914062 -3.011719 1.398438 -4.898438 2.25 -6.601562 C 2.28125 -6.691406 2.3125 -6.722656 2.3125 -6.722656 C 2.34375 -6.8125 2.371094 -6.84375 2.433594 -6.84375 C 2.523438 -6.84375 2.554688 -6.8125 2.585938 -6.722656 C 2.738281 -6.449219 3.011719 -6.296875 3.40625 -6.265625 C 4.105469 -6.265625 4.441406 -6.511719 4.804688 -7.085938 C 5.324219 -7.726562 5.65625 -8.457031 5.839844 -9.277344 C 5.933594 -9.644531 5.992188 -10.007812 5.902344 -10.402344 C 5.78125 -10.980469 5.261719 -11.316406 4.683594 -11.316406 C 3.925781 -11.316406 3.316406 -10.523438 2.980469 -9.949219 C 2.769531 -9.550781 2.585938 -9.125 2.371094 -8.730469 C 2.3125 -8.640625 2.28125 -8.519531 2.25 -8.394531 C 2.21875 -8.273438 2.128906 -8.183594 2.007812 -8.121094 C 1.917969 -8.089844 1.945312 -8.335938 2.070312 -8.851562 C 2.070312 -8.882812 2.070312 -8.914062 2.097656 -8.945312 C 2.097656 -8.945312 2.097656 -8.972656 2.097656 -9.003906 C 2.585938 -10.859375 2.980469 -12.714844 3.375 -14.632812 C 3.46875 -14.90625 3.5 -15.148438 3.46875 -15.421875 C 3.46875 -15.636719 3.195312 -15.757812 3.042969 -15.757812 C 2.890625 -15.757812 2.738281 -15.695312 2.648438 -15.542969 L 2.464844 -15.210938 C 2.402344 -15.058594 2.34375 -14.875 2.28125 -14.722656 C 2.191406 -14.570312 2.128906 -14.386719 2.070312 -14.207031 L 1.429688 -11.894531 C 0.609375 -8.820312 -0.152344 -5.6875 -0.609375 -2.523438 C -0.761719 -1.671875 -0.882812 -0.851562 -0.972656 0.03125 L -0.972656 0.578125 C -0.972656 0.882812 -0.820312 1.035156 -0.515625 1.035156 Z M 2.769531 -7.390625 C 2.738281 -7.390625 2.707031 -7.421875 2.675781 -7.484375 L 2.707031 -7.605469 C 2.980469 -8.242188 3.285156 -8.914062 3.679688 -9.582031 C 3.832031 -9.917969 4.046875 -10.222656 4.320312 -10.433594 L 4.59375 -10.648438 C 4.625 -10.648438 4.625 -10.648438 4.625 -10.675781 C 4.625 -10.675781 4.625 -10.675781 4.652344 -10.675781 C 4.804688 -10.675781 4.867188 -10.617188 4.867188 -10.496094 C 4.898438 -10.433594 4.898438 -10.34375 4.898438 -10.222656 L 4.746094 -9.519531 C 4.652344 -9.09375 4.015625 -7.453125 3.527344 -7.453125 L 3.46875 -7.453125 C 3.4375 -7.484375 3.375 -7.484375 3.316406 -7.484375 L 3.222656 -7.484375 C 3.132812 -7.484375 3.074219 -7.484375 3.011719 -7.453125 C 2.921875 -7.421875 2.859375 -7.421875 2.769531 -7.390625 Z M 2.769531 -7.390625 "/></g></g></g><g fill="#000000" fill-opacity="1"><g transform="translate(125.030809, 149.709203)"><g><path d="M 4.835938 -2.890625 C 5.140625 -2.890625 5.414062 -3.011719 5.6875 -3.253906 C 5.933594 -3.46875 6.144531 -3.679688 6.359375 -3.925781 C 6.660156 -4.320312 6.964844 -4.777344 7.300781 -5.230469 L 8.578125 -7.238281 C 8.730469 -7.453125 8.851562 -7.695312 9.003906 -7.941406 C 9.125 -8.183594 9.246094 -8.425781 9.398438 -8.667969 C 9.492188 -8.820312 9.519531 -8.972656 9.550781 -9.066406 C 9.550781 -9.066406 9.550781 -9.09375 9.550781 -9.1875 C 9.519531 -9.339844 9.398438 -9.398438 9.1875 -9.398438 C 9.09375 -9.398438 9.035156 -9.371094 9.003906 -9.308594 C 8.882812 -9.1875 8.792969 -9.035156 8.730469 -8.882812 C 8.089844 -7.664062 6.449219 -5.082031 5.476562 -4.105469 C 5.382812 -4.015625 5.292969 -3.953125 5.203125 -3.894531 C 5.109375 -3.800781 5.019531 -3.742188 4.898438 -3.679688 C 4.867188 -3.679688 4.867188 -3.679688 4.867188 -3.679688 C 4.867188 -3.652344 4.867188 -3.652344 4.835938 -3.652344 C 4.746094 -3.652344 4.683594 -3.710938 4.625 -3.800781 C 4.53125 -4.136719 4.625 -4.472656 4.652344 -4.804688 C 4.867188 -5.808594 5.050781 -6.753906 5.414062 -7.695312 C 5.65625 -8.273438 5.902344 -8.851562 6.113281 -9.429688 C 6.265625 -9.644531 6.753906 -11.011719 6.753906 -11.164062 C 6.785156 -11.316406 6.722656 -11.40625 6.601562 -11.46875 C 6.511719 -11.558594 6.417969 -11.589844 6.296875 -11.589844 C 6.144531 -11.589844 6.023438 -11.527344 5.933594 -11.378906 C 5.808594 -11.164062 5.6875 -11.011719 5.566406 -10.859375 L 4.652344 -9.550781 C 4.5625 -9.460938 4.503906 -9.398438 4.441406 -9.371094 C 4.441406 -9.371094 4.410156 -9.371094 4.320312 -9.371094 L 4.167969 -9.703125 C 3.800781 -10.28125 3.285156 -10.554688 2.648438 -10.554688 C 2.25 -10.554688 1.855469 -10.433594 1.492188 -10.160156 C 1.246094 -9.949219 1.035156 -9.734375 0.820312 -9.398438 C 0.699219 -9.1875 0.578125 -9.003906 0.457031 -8.820312 C 0.335938 -8.609375 0.214844 -8.394531 0.0898438 -8.183594 C -0.273438 -7.484375 -0.457031 -6.722656 -0.457031 -5.902344 C -0.363281 -5.171875 0.183594 -4.777344 0.882812 -4.683594 L 1.066406 -4.683594 C 1.277344 -4.683594 1.460938 -4.746094 1.582031 -4.835938 C 2.160156 -5.324219 2.617188 -5.78125 3.101562 -6.359375 C 3.195312 -6.449219 3.253906 -6.511719 3.347656 -6.601562 L 3.40625 -6.601562 C 3.46875 -6.539062 3.5 -6.511719 3.5 -6.511719 C 3.5 -6.480469 3.5 -6.417969 3.5 -6.386719 C 3.46875 -6.328125 3.46875 -6.265625 3.46875 -6.234375 C 3.4375 -5.992188 3.375 -5.75 3.347656 -5.507812 C 3.285156 -5.261719 3.253906 -5.019531 3.222656 -4.746094 C 3.222656 -3.800781 3.773438 -2.890625 4.835938 -2.890625 Z M 1.066406 -5.71875 C 0.972656 -5.75 0.941406 -5.871094 0.941406 -6.023438 C 1.09375 -7.117188 2.21875 -9.976562 3.195312 -9.976562 C 3.316406 -9.976562 3.40625 -9.917969 3.46875 -9.796875 C 3.558594 -9.671875 3.589844 -9.582031 3.621094 -9.519531 C 3.652344 -9.308594 3.773438 -9.15625 4.015625 -9.066406 C 4.105469 -9.035156 4.136719 -8.945312 4.105469 -8.820312 C 4.105469 -8.820312 4.078125 -8.792969 4.046875 -8.761719 C 3.347656 -7.816406 2.675781 -6.996094 1.824219 -6.175781 C 1.734375 -6.085938 1.644531 -6.023438 1.550781 -5.960938 C 1.460938 -5.902344 1.339844 -5.839844 1.246094 -5.75 C 1.21875 -5.71875 1.15625 -5.71875 1.066406 -5.71875 Z M 1.066406 -5.71875 "/></g></g></g><g fill="#000000" fill-opacity="1"><g transform="translate(133.363325, 149.709203)"><g><path d="M 1.066406 -3.800781 C 1.277344 -3.800781 1.492188 -3.925781 1.671875 -4.167969 C 1.792969 -4.320312 1.886719 -4.503906 1.976562 -4.652344 C 2.070312 -4.867188 2.191406 -5.109375 2.28125 -5.324219 C 2.371094 -5.535156 2.464844 -5.75 2.554688 -5.960938 C 2.707031 -6.296875 2.859375 -6.601562 3.011719 -6.9375 C 3.132812 -7.238281 3.285156 -7.542969 3.4375 -7.847656 C 3.800781 -8.578125 4.683594 -10.222656 5.476562 -10.3125 C 5.507812 -10.3125 5.597656 -10.433594 5.597656 -10.464844 C 5.566406 -10.496094 5.535156 -10.554688 5.507812 -10.585938 L 5.140625 -10.675781 C 5.109375 -10.675781 5.082031 -10.675781 5.050781 -10.707031 C 5.019531 -10.707031 4.988281 -10.707031 4.957031 -10.707031 C 4.378906 -10.707031 3.925781 -10.097656 3.652344 -9.644531 C 2.921875 -8.667969 2.402344 -7.515625 1.917969 -6.386719 L 1.671875 -5.933594 C 1.644531 -5.902344 1.613281 -5.871094 1.582031 -5.839844 C 1.550781 -5.808594 1.519531 -5.808594 1.519531 -5.839844 C 1.492188 -5.933594 1.460938 -5.960938 1.460938 -5.992188 L 1.917969 -9.09375 C 1.945312 -9.398438 2.007812 -9.703125 2.070312 -10.039062 C 2.097656 -10.34375 2.128906 -10.707031 2.128906 -11.101562 L 2.128906 -11.5 C 2.097656 -11.773438 1.765625 -11.832031 1.550781 -11.832031 C 1.492188 -11.773438 1.460938 -11.742188 1.460938 -11.742188 C 1.003906 -11.132812 0.183594 -6.207031 0.121094 -5.109375 C 0.121094 -4.988281 0.121094 -4.867188 0.152344 -4.746094 C 0.152344 -4.625 0.152344 -4.503906 0.152344 -4.378906 C 0.183594 -4.199219 0.273438 -4.046875 0.488281 -3.953125 C 0.546875 -3.925781 0.640625 -3.863281 0.761719 -3.832031 C 0.851562 -3.800781 0.941406 -3.800781 1.066406 -3.800781 Z M 1.066406 -3.800781 "/></g></g></g><g fill="#000000" fill-opacity="1"><g transform="translate(139.080567, 149.709203)"><g/></g></g><g fill="#000000" fill-opacity="1"><g transform="translate(147.291443, 149.709203)"><g><path d="M 8.546875 2.523438 C 8.761719 2.523438 8.945312 2.496094 9.15625 2.433594 C 9.613281 2.34375 9.886719 1.671875 9.917969 1.308594 C 9.917969 1.09375 9.734375 1.066406 9.582031 1.066406 C 9.429688 1.066406 9.308594 1.15625 9.21875 1.308594 C 9.125 1.460938 9.066406 1.582031 9.003906 1.671875 C 8.972656 1.734375 8.914062 1.792969 8.820312 1.886719 C 8.730469 1.917969 8.699219 1.945312 8.667969 1.945312 C 8.578125 1.945312 8.519531 1.917969 8.425781 1.824219 C 8.304688 1.644531 8.214844 1.429688 8.152344 1.1875 C 8 0.667969 8 0.121094 8.089844 -0.515625 C 8.335938 -2.890625 8.730469 -5.203125 9.308594 -7.421875 L 9.398438 -7.757812 C 9.460938 -7.878906 9.550781 -7.941406 9.671875 -7.941406 C 10.007812 -7.941406 11.742188 -7.96875 12.136719 -7.96875 C 12.835938 -8.0625 13.628906 -8.273438 13.902344 -8.972656 C 13.933594 -9.09375 13.902344 -9.1875 13.839844 -9.246094 C 13.6875 -9.398438 13.535156 -9.492188 13.386719 -9.492188 C 13.234375 -9.492188 13.109375 -9.429688 12.988281 -9.308594 L 12.714844 -9.066406 C 12.410156 -8.761719 10.375 -8.609375 9.949219 -8.609375 C 9.734375 -8.609375 9.671875 -8.699219 9.703125 -8.851562 C 9.734375 -9.09375 9.796875 -9.277344 9.824219 -9.429688 L 10.828125 -13.171875 C 11.195312 -14.539062 11.527344 -15.910156 11.804688 -17.339844 C 11.894531 -17.824219 11.925781 -18.28125 11.863281 -18.679688 C 11.832031 -19.011719 11.679688 -19.316406 11.40625 -19.53125 C 11.195312 -19.683594 11.011719 -19.742188 10.859375 -19.742188 C 10.769531 -19.742188 10.617188 -19.710938 10.464844 -19.621094 C 8 -17.734375 5.535156 -13.355469 4.378906 -10.464844 C 4.351562 -10.375 4.320312 -10.28125 4.289062 -10.191406 C 4.257812 -10.097656 4.199219 -10.039062 4.167969 -9.949219 C 4.136719 -9.917969 4.136719 -9.855469 4.105469 -9.824219 C 4.078125 -9.765625 4.078125 -9.703125 4.046875 -9.671875 C 3.984375 -9.582031 3.894531 -9.550781 3.800781 -9.550781 C 3.652344 -9.582031 3.46875 -9.613281 3.316406 -9.644531 C 3.132812 -9.671875 2.949219 -9.703125 2.796875 -9.734375 C 2.707031 -9.765625 2.585938 -9.765625 2.433594 -9.765625 C 2.097656 -9.765625 1.855469 -9.734375 1.519531 -9.644531 C 1.277344 -9.582031 1.066406 -9.460938 0.882812 -9.308594 C 0.546875 -9.035156 0.609375 -8.640625 0.882812 -8.304688 C 0.914062 -8.273438 0.941406 -8.242188 0.972656 -8.242188 C 1.003906 -8.242188 1.035156 -8.242188 1.066406 -8.214844 C 1.15625 -8.214844 1.21875 -8.242188 1.246094 -8.304688 C 1.277344 -8.394531 1.308594 -8.457031 1.308594 -8.488281 C 1.398438 -8.945312 1.917969 -9.15625 2.3125 -9.15625 C 2.464844 -9.15625 2.648438 -9.15625 2.828125 -9.15625 C 2.980469 -9.15625 3.164062 -9.15625 3.316406 -9.125 C 3.652344 -9.09375 3.742188 -8.945312 3.621094 -8.640625 C 3.527344 -8.394531 3.4375 -8.152344 3.316406 -7.910156 L 2.128906 -4.929688 C 1.976562 -4.59375 1.855469 -4.257812 1.734375 -3.925781 C 1.613281 -3.589844 1.492188 -3.253906 1.339844 -2.921875 C 1.125 -2.464844 0.789062 -1.765625 0.425781 -1.492188 C 0.335938 -1.398438 0.242188 -1.367188 0.152344 -1.367188 C 0.0625 -1.367188 0 -1.367188 -0.03125 -1.398438 C -0.0625 -1.429688 -0.121094 -1.429688 -0.183594 -1.429688 C -0.214844 -1.429688 -0.273438 -1.429688 -0.304688 -1.460938 C -0.394531 -1.460938 -0.457031 -1.398438 -0.457031 -1.246094 C -0.425781 -1.15625 -0.363281 -1.125 -0.335938 -1.09375 C -0.121094 -0.882812 0.0898438 -0.789062 0.363281 -0.789062 C 0.820312 -0.789062 1.277344 -1.15625 1.613281 -1.492188 C 1.824219 -1.765625 1.976562 -2.039062 2.191406 -2.371094 C 2.34375 -2.707031 2.523438 -3.074219 2.675781 -3.40625 C 2.828125 -3.742188 2.980469 -4.105469 3.132812 -4.472656 C 3.40625 -5.109375 3.679688 -5.75 3.953125 -6.386719 C 4.199219 -7.027344 4.472656 -7.636719 4.746094 -8.273438 L 4.835938 -8.488281 C 4.929688 -8.609375 5.019531 -8.667969 5.171875 -8.667969 C 6.023438 -8.425781 6.875 -8.183594 7.757812 -8.0625 C 7.941406 -8.0625 8 -7.96875 7.96875 -7.757812 C 7.941406 -7.542969 7.878906 -7.363281 7.847656 -7.148438 C 7.757812 -6.753906 7.664062 -6.328125 7.574219 -5.933594 C 7.484375 -5.507812 7.421875 -5.082031 7.332031 -4.683594 C 7.210938 -3.953125 7.117188 -3.222656 7.027344 -2.496094 L 6.785156 -0.0625 L 6.8125 -0.0625 L 6.8125 0.425781 C 6.90625 1.492188 7.300781 2.523438 8.546875 2.523438 Z M 7.757812 -8.667969 C 7.238281 -8.699219 6.660156 -8.820312 6.085938 -8.972656 C 5.019531 -9.308594 5.082031 -9.09375 5.507812 -10.128906 C 6.449219 -12.5625 8.425781 -16.246094 10.222656 -18.191406 C 10.3125 -18.28125 10.433594 -18.402344 10.523438 -18.527344 C 10.617188 -18.617188 10.738281 -18.707031 10.890625 -18.800781 C 10.921875 -18.828125 11.042969 -18.769531 11.074219 -18.738281 L 11.074219 -18.527344 L 10.980469 -18.039062 C 10.859375 -17.644531 10.738281 -17.25 10.617188 -16.851562 C 10.496094 -16.457031 10.375 -16.03125 10.28125 -15.636719 C 10.007812 -14.664062 9.703125 -13.71875 9.429688 -12.777344 C 9.15625 -11.832031 8.851562 -10.890625 8.578125 -9.949219 L 8.304688 -8.972656 C 8.273438 -8.761719 8.121094 -8.667969 7.910156 -8.667969 Z M 7.757812 -8.667969 "/></g></g></g><g fill="#000000" fill-opacity="1"><g transform="translate(159.972609, 149.709203)"><g><path d="M 1.066406 -3.800781 C 1.277344 -3.800781 1.492188 -3.925781 1.671875 -4.167969 C 1.792969 -4.320312 1.886719 -4.503906 1.976562 -4.652344 C 2.070312 -4.867188 2.191406 -5.109375 2.28125 -5.324219 C 2.371094 -5.535156 2.464844 -5.75 2.554688 -5.960938 C 2.707031 -6.296875 2.859375 -6.601562 3.011719 -6.9375 C 3.132812 -7.238281 3.285156 -7.542969 3.4375 -7.847656 C 3.800781 -8.578125 4.683594 -10.222656 5.476562 -10.3125 C 5.507812 -10.3125 5.597656 -10.433594 5.597656 -10.464844 C 5.566406 -10.496094 5.535156 -10.554688 5.507812 -10.585938 L 5.140625 -10.675781 C 5.109375 -10.675781 5.082031 -10.675781 5.050781 -10.707031 C 5.019531 -10.707031 4.988281 -10.707031 4.957031 -10.707031 C 4.378906 -10.707031 3.925781 -10.097656 3.652344 -9.644531 C 2.921875 -8.667969 2.402344 -7.515625 1.917969 -6.386719 L 1.671875 -5.933594 C 1.644531 -5.902344 1.613281 -5.871094 1.582031 -5.839844 C 1.550781 -5.808594 1.519531 -5.808594 1.519531 -5.839844 C 1.492188 -5.933594 1.460938 -5.960938 1.460938 -5.992188 L 1.917969 -9.09375 C 1.945312 -9.398438 2.007812 -9.703125 2.070312 -10.039062 C 2.097656 -10.34375 2.128906 -10.707031 2.128906 -11.101562 L 2.128906 -11.5 C 2.097656 -11.773438 1.765625 -11.832031 1.550781 -11.832031 C 1.492188 -11.773438 1.460938 -11.742188 1.460938 -11.742188 C 1.003906 -11.132812 0.183594 -6.207031 0.121094 -5.109375 C 0.121094 -4.988281 0.121094 -4.867188 0.152344 -4.746094 C 0.152344 -4.625 0.152344 -4.503906 0.152344 -4.378906 C 0.183594 -4.199219 0.273438 -4.046875 0.488281 -3.953125 C 0.546875 -3.925781 0.640625 -3.863281 0.761719 -3.832031 C 0.851562 -3.800781 0.941406 -3.800781 1.066406 -3.800781 Z M 1.066406 -3.800781 "/></g></g></g><g fill="#000000" fill-opacity="1"><g transform="translate(165.689851, 149.709203)"><g><path d="M 4.257812 -1.644531 C 4.472656 -1.644531 4.683594 -1.703125 4.867188 -1.792969 C 5.082031 -1.945312 5.292969 -2.128906 5.445312 -2.34375 L 5.992188 -3.164062 C 6.386719 -3.863281 6.8125 -4.5625 7.210938 -5.261719 C 7.605469 -5.933594 8 -6.632812 8.394531 -7.332031 C 8.546875 -7.605469 8.699219 -7.878906 8.820312 -8.152344 C 8.945312 -8.425781 9.066406 -8.730469 9.21875 -9.003906 C 9.308594 -9.15625 9.21875 -9.277344 9.003906 -9.308594 C 8.972656 -9.339844 8.914062 -9.339844 8.851562 -9.339844 C 8.730469 -9.339844 8.640625 -9.277344 8.578125 -9.1875 L 8.273438 -8.609375 C 7.332031 -6.785156 6.296875 -5.050781 5.109375 -3.347656 C 4.988281 -3.195312 4.867188 -3.042969 4.714844 -2.921875 C 4.714844 -2.890625 4.683594 -2.890625 4.59375 -2.890625 C 4.59375 -2.921875 4.59375 -2.921875 4.5625 -2.949219 C 4.472656 -3.195312 4.5625 -3.4375 4.59375 -3.679688 C 4.835938 -4.898438 5.109375 -6.085938 5.445312 -7.300781 L 6.175781 -10.128906 C 6.234375 -10.433594 6.265625 -10.738281 6.265625 -11.042969 C 6.234375 -11.316406 6.113281 -11.5 5.933594 -11.589844 L 5.75 -11.679688 C 5.6875 -11.710938 5.597656 -11.742188 5.476562 -11.742188 C 5.082031 -11.742188 4.472656 -10.828125 4.289062 -10.464844 L 2.828125 -7.757812 C 2.433594 -7.058594 1.976562 -6.386719 1.519531 -5.6875 C 1.492188 -5.65625 1.460938 -5.628906 1.367188 -5.597656 C 1.277344 -5.566406 1.246094 -5.628906 1.246094 -5.808594 C 1.246094 -5.960938 1.246094 -6.085938 1.277344 -6.175781 C 1.367188 -6.570312 1.429688 -6.996094 1.519531 -7.421875 C 1.582031 -7.847656 1.671875 -8.273438 1.765625 -8.699219 C 1.792969 -8.914062 1.855469 -9.125 1.917969 -9.339844 C 1.945312 -9.519531 2.007812 -9.734375 2.039062 -9.949219 C 2.070312 -10.128906 1.976562 -10.25 1.824219 -10.34375 L 1.644531 -10.433594 L 1.582031 -10.433594 C 1.367188 -10.433594 1.246094 -10.28125 1.15625 -10.070312 L 0.882812 -9.339844 C 0.425781 -7.96875 0.183594 -6.570312 0.0625 -5.140625 C 0 -4.683594 0.183594 -4.378906 0.578125 -4.199219 L 0.699219 -4.167969 C 0.851562 -4.105469 1.003906 -4.078125 1.09375 -4.078125 C 1.339844 -4.078125 1.519531 -4.167969 1.671875 -4.378906 C 1.824219 -4.53125 1.945312 -4.683594 2.039062 -4.898438 C 2.523438 -5.71875 3.011719 -6.570312 3.46875 -7.390625 L 4.714844 -9.644531 C 4.746094 -9.734375 4.804688 -9.796875 4.835938 -9.824219 L 4.957031 -9.824219 C 4.957031 -9.824219 4.957031 -9.796875 4.988281 -9.765625 L 4.804688 -9.09375 C 4.410156 -7.847656 4.015625 -6.632812 3.679688 -5.324219 C 3.40625 -4.257812 3.285156 -3.4375 3.285156 -2.371094 C 3.316406 -2.160156 3.40625 -2.039062 3.558594 -1.945312 C 3.773438 -1.765625 3.984375 -1.671875 4.257812 -1.644531 Z M 4.257812 -1.644531 "/></g></g></g><g fill="#000000" fill-opacity="1"><g transform="translate(173.718262, 149.709203)"><g><path d="M 4.835938 -2.890625 C 5.140625 -2.890625 5.414062 -3.011719 5.6875 -3.253906 C 5.933594 -3.46875 6.144531 -3.679688 6.359375 -3.925781 C 6.660156 -4.320312 6.964844 -4.777344 7.300781 -5.230469 L 8.578125 -7.238281 C 8.730469 -7.453125 8.851562 -7.695312 9.003906 -7.941406 C 9.125 -8.183594 9.246094 -8.425781 9.398438 -8.667969 C 9.492188 -8.820312 9.519531 -8.972656 9.550781 -9.066406 C 9.550781 -9.066406 9.550781 -9.09375 9.550781 -9.1875 C 9.519531 -9.339844 9.398438 -9.398438 9.1875 -9.398438 C 9.09375 -9.398438 9.035156 -9.371094 9.003906 -9.308594 C 8.882812 -9.1875 8.792969 -9.035156 8.730469 -8.882812 C 8.089844 -7.664062 6.449219 -5.082031 5.476562 -4.105469 C 5.382812 -4.015625 5.292969 -3.953125 5.203125 -3.894531 C 5.109375 -3.800781 5.019531 -3.742188 4.898438 -3.679688 C 4.867188 -3.679688 4.867188 -3.679688 4.867188 -3.679688 C 4.867188 -3.652344 4.867188 -3.652344 4.835938 -3.652344 C 4.746094 -3.652344 4.683594 -3.710938 4.625 -3.800781 C 4.53125 -4.136719 4.625 -4.472656 4.652344 -4.804688 C 4.867188 -5.808594 5.050781 -6.753906 5.414062 -7.695312 C 5.65625 -8.273438 5.902344 -8.851562 6.113281 -9.429688 C 6.265625 -9.644531 6.753906 -11.011719 6.753906 -11.164062 C 6.785156 -11.316406 6.722656 -11.40625 6.601562 -11.46875 C 6.511719 -11.558594 6.417969 -11.589844 6.296875 -11.589844 C 6.144531 -11.589844 6.023438 -11.527344 5.933594 -11.378906 C 5.808594 -11.164062 5.6875 -11.011719 5.566406 -10.859375 L 4.652344 -9.550781 C 4.5625 -9.460938 4.503906 -9.398438 4.441406 -9.371094 C 4.441406 -9.371094 4.410156 -9.371094 4.320312 -9.371094 L 4.167969 -9.703125 C 3.800781 -10.28125 3.285156 -10.554688 2.648438 -10.554688 C 2.25 -10.554688 1.855469 -10.433594 1.492188 -10.160156 C 1.246094 -9.949219 1.035156 -9.734375 0.820312 -9.398438 C 0.699219 -9.1875 0.578125 -9.003906 0.457031 -8.820312 C 0.335938 -8.609375 0.214844 -8.394531 0.0898438 -8.183594 C -0.273438 -7.484375 -0.457031 -6.722656 -0.457031 -5.902344 C -0.363281 -5.171875 0.183594 -4.777344 0.882812 -4.683594 L 1.066406 -4.683594 C 1.277344 -4.683594 1.460938 -4.746094 1.582031 -4.835938 C 2.160156 -5.324219 2.617188 -5.78125 3.101562 -6.359375 C 3.195312 -6.449219 3.253906 -6.511719 3.347656 -6.601562 L 3.40625 -6.601562 C 3.46875 -6.539062 3.5 -6.511719 3.5 -6.511719 C 3.5 -6.480469 3.5 -6.417969 3.5 -6.386719 C 3.46875 -6.328125 3.46875 -6.265625 3.46875 -6.234375 C 3.4375 -5.992188 3.375 -5.75 3.347656 -5.507812 C 3.285156 -5.261719 3.253906 -5.019531 3.222656 -4.746094 C 3.222656 -3.800781 3.773438 -2.890625 4.835938 -2.890625 Z M 1.066406 -5.71875 C 0.972656 -5.75 0.941406 -5.871094 0.941406 -6.023438 C 1.09375 -7.117188 2.21875 -9.976562 3.195312 -9.976562 C 3.316406 -9.976562 3.40625 -9.917969 3.46875 -9.796875 C 3.558594 -9.671875 3.589844 -9.582031 3.621094 -9.519531 C 3.652344 -9.308594 3.773438 -9.15625 4.015625 -9.066406 C 4.105469 -9.035156 4.136719 -8.945312 4.105469 -8.820312 C 4.105469 -8.820312 4.078125 -8.792969 4.046875 -8.761719 C 3.347656 -7.816406 2.675781 -6.996094 1.824219 -6.175781 C 1.734375 -6.085938 1.644531 -6.023438 1.550781 -5.960938 C 1.460938 -5.902344 1.339844 -5.839844 1.246094 -5.75 C 1.21875 -5.71875 1.15625 -5.71875 1.066406 -5.71875 Z M 1.066406 -5.71875 "/></g></g></g><g fill="#000000" fill-opacity="1"><g transform="translate(182.050779, 149.709203)"><g><path d="M 4.410156 -3.5 C 4.746094 -3.5 5.019531 -3.652344 5.171875 -3.925781 C 5.292969 -4.078125 5.382812 -4.199219 5.414062 -4.289062 C 6.175781 -5.71875 6.9375 -7.027344 7.757812 -8.457031 L 8 -8.972656 C 8.089844 -9.1875 8 -9.308594 7.789062 -9.339844 C 7.574219 -9.339844 7.453125 -9.277344 7.363281 -9.125 C 6.601562 -7.757812 5.839844 -6.417969 5.019531 -5.109375 L 4.804688 -4.835938 C 4.777344 -4.835938 4.777344 -4.835938 4.746094 -4.804688 C 4.652344 -4.835938 4.625 -4.867188 4.625 -4.898438 L 4.625 -5.324219 L 4.804688 -6.8125 C 4.898438 -7.453125 4.957031 -8.089844 5.050781 -8.667969 C 5.050781 -8.792969 5.050781 -8.914062 5.050781 -9.003906 C 5.050781 -9.09375 5.050781 -9.21875 5.019531 -9.308594 C 5.019531 -9.429688 4.957031 -9.519531 4.804688 -9.582031 C 4.652344 -9.671875 4.53125 -9.703125 4.441406 -9.703125 C 4.257812 -9.703125 4.105469 -9.613281 3.953125 -9.398438 C 3.863281 -9.246094 3.742188 -9.09375 3.652344 -8.914062 L 2.921875 -7.605469 C 2.675781 -7.117188 1.855469 -5.476562 1.398438 -5.203125 C 1.398438 -5.203125 1.367188 -5.203125 1.339844 -5.203125 L 1.308594 -5.230469 C 1.277344 -5.382812 1.246094 -5.476562 1.277344 -5.535156 C 1.308594 -5.808594 1.367188 -6.054688 1.398438 -6.328125 C 1.429688 -6.601562 1.492188 -6.875 1.519531 -7.148438 C 1.582031 -7.484375 1.644531 -7.847656 1.734375 -8.214844 C 1.824219 -8.546875 1.886719 -8.914062 1.945312 -9.246094 C 1.976562 -9.339844 2.007812 -9.460938 2.007812 -9.582031 C 2.007812 -9.671875 2.007812 -9.796875 2.039062 -9.886719 C 2.039062 -10.039062 1.945312 -10.160156 1.792969 -10.222656 L 1.613281 -10.3125 C 1.398438 -10.3125 1.21875 -10.34375 1.09375 -10.128906 L 0.820312 -9.550781 C 0.304688 -8.121094 0.03125 -6.785156 -0.183594 -5.292969 C -0.214844 -4.898438 -0.214844 -4.59375 -0.121094 -4.320312 C -0.03125 -4.078125 0.121094 -3.925781 0.273438 -3.832031 C 0.457031 -3.710938 0.667969 -3.652344 0.882812 -3.652344 C 1.125 -3.652344 1.308594 -3.742188 1.460938 -3.894531 L 1.792969 -4.351562 L 2.707031 -5.808594 C 2.796875 -5.960938 2.890625 -6.144531 3.011719 -6.296875 C 3.042969 -6.359375 3.101562 -6.417969 3.132812 -6.511719 C 3.164062 -6.570312 3.195312 -6.601562 3.285156 -6.570312 C 3.316406 -6.539062 3.347656 -6.511719 3.347656 -6.449219 C 3.347656 -6.359375 3.347656 -6.296875 3.316406 -6.234375 L 3.285156 -6.023438 C 3.253906 -5.808594 3.222656 -5.628906 3.222656 -5.445312 C 3.222656 -5.230469 3.222656 -5.019531 3.222656 -4.804688 C 3.222656 -4.59375 3.285156 -4.378906 3.375 -4.105469 C 3.589844 -3.710938 3.953125 -3.5 4.410156 -3.5 Z M 4.410156 -3.5 "/></g></g></g><g fill="#000000" fill-opacity="1"><g transform="translate(188.862789, 149.709203)"><g><path d="M 4.410156 -1.550781 C 4.804688 -1.550781 5.109375 -1.582031 5.445312 -1.917969 C 5.535156 -2.007812 5.65625 -2.128906 5.75 -2.21875 C 5.839844 -2.3125 5.933594 -2.433594 6.023438 -2.554688 C 6.417969 -3.101562 6.753906 -3.679688 7.027344 -4.289062 C 7.363281 -5.019531 7.664062 -5.75 7.96875 -6.480469 C 8.273438 -7.210938 8.578125 -7.941406 8.914062 -8.667969 C 9.003906 -8.820312 9.035156 -8.945312 9.066406 -9.09375 C 9.066406 -9.125 9.066406 -9.1875 9.09375 -9.21875 C 9.09375 -9.246094 9.09375 -9.277344 9.066406 -9.308594 C 9.066406 -9.339844 9.035156 -9.398438 8.972656 -9.460938 C 8.882812 -9.492188 8.820312 -9.519531 8.792969 -9.519531 C 8.640625 -9.519531 8.546875 -9.460938 8.457031 -9.339844 L 8.273438 -8.945312 C 7.574219 -7.269531 6.90625 -5.6875 6.144531 -4.105469 C 5.933594 -3.652344 5.6875 -3.285156 5.355469 -2.828125 C 5.324219 -2.738281 5.261719 -2.675781 5.203125 -2.617188 C 5.109375 -2.554688 5.050781 -2.496094 4.988281 -2.402344 C 4.929688 -2.34375 4.867188 -2.3125 4.804688 -2.3125 C 4.5625 -2.3125 4.503906 -2.890625 4.503906 -3.101562 C 4.472656 -3.621094 4.441406 -4.167969 4.441406 -4.683594 C 4.441406 -5.203125 4.472656 -5.71875 4.53125 -6.234375 C 4.714844 -7.542969 5.082031 -10.28125 5.808594 -11.011719 C 7.390625 -12.683594 9.613281 -15.363281 10.191406 -17.644531 C 10.34375 -18.402344 10.222656 -18.859375 9.246094 -19.195312 C 9.125 -19.226562 9.035156 -19.257812 8.945312 -19.257812 C 7.910156 -19.257812 6.8125 -17.308594 6.085938 -15.667969 C 5.382812 -14.144531 4.441406 -11.46875 4.167969 -10.496094 C 4.136719 -10.402344 4.105469 -10.34375 4.105469 -10.28125 C 4.078125 -10.222656 4.046875 -10.160156 4.015625 -10.097656 C 3.984375 -10.007812 3.925781 -9.976562 3.863281 -9.976562 C 3.832031 -9.976562 3.800781 -9.976562 3.773438 -10.007812 C 3.679688 -10.039062 3.621094 -10.097656 3.527344 -10.160156 C 3.4375 -10.191406 3.375 -10.25 3.285156 -10.28125 C 2.980469 -10.375 2.707031 -10.433594 2.464844 -10.433594 C 0.730469 -10.433594 -0.273438 -8.183594 -0.457031 -6.570312 C -0.488281 -6.265625 -0.457031 -5.960938 -0.363281 -5.65625 C -0.242188 -5.171875 0.0625 -4.867188 0.546875 -4.746094 C 0.730469 -4.683594 0.914062 -4.652344 1.09375 -4.652344 C 1.613281 -4.652344 2.039062 -4.988281 2.371094 -5.382812 C 2.464844 -5.476562 2.554688 -5.597656 2.648438 -5.6875 C 2.707031 -5.78125 2.796875 -5.902344 2.890625 -5.992188 C 2.921875 -6.023438 2.980469 -6.085938 3.011719 -6.175781 C 3.042969 -6.265625 3.101562 -6.265625 3.164062 -6.234375 C 3.253906 -6.207031 3.316406 -6.144531 3.285156 -6.054688 C 3.253906 -5.960938 3.253906 -5.902344 3.253906 -5.808594 C 3.253906 -5.65625 3.253906 -5.507812 3.253906 -5.355469 C 3.253906 -5.203125 3.253906 -5.050781 3.222656 -4.898438 C 3.222656 -3.953125 3.253906 -3.347656 3.375 -2.738281 L 3.558594 -2.128906 C 3.742188 -1.765625 4.015625 -1.582031 4.410156 -1.550781 Z M 1.1875 -5.535156 C 1.125 -5.535156 1.09375 -5.535156 1.066406 -5.566406 C 0.972656 -5.628906 0.941406 -5.75 0.941406 -5.960938 C 1.035156 -7.027344 1.765625 -9.917969 2.949219 -9.917969 C 3.042969 -9.886719 3.101562 -9.824219 3.132812 -9.796875 C 3.195312 -9.765625 3.222656 -9.734375 3.222656 -9.703125 C 3.285156 -9.460938 3.4375 -9.308594 3.652344 -9.246094 C 3.773438 -9.21875 3.800781 -9.125 3.773438 -9.035156 C 3.742188 -9.003906 3.742188 -8.972656 3.742188 -8.945312 C 3.164062 -7.757812 2.523438 -6.691406 1.550781 -5.808594 C 1.492188 -5.75 1.460938 -5.71875 1.460938 -5.71875 C 1.367188 -5.628906 1.277344 -5.535156 1.1875 -5.535156 Z M 6.054688 -12.289062 C 6.023438 -12.320312 5.992188 -12.351562 5.992188 -12.382812 C 6.234375 -13.75 7.664062 -16.972656 8.640625 -18.128906 C 8.792969 -18.34375 8.972656 -18.527344 9.1875 -18.679688 C 9.21875 -18.707031 9.277344 -18.707031 9.339844 -18.707031 C 9.460938 -18.707031 9.550781 -18.648438 9.582031 -18.496094 C 9.582031 -18.433594 9.582031 -18.375 9.613281 -18.28125 C 9.519531 -17.675781 9.371094 -17.097656 9.035156 -16.519531 C 8.335938 -15.058594 7.390625 -13.71875 6.328125 -12.503906 C 6.265625 -12.410156 6.207031 -12.351562 6.113281 -12.289062 Z M 6.054688 -12.289062 "/></g></g></g><g fill="#000000" fill-opacity="1"><g transform="translate(196.67833, 149.709203)"><g/></g></g><g fill="#000000" fill-opacity="1"><g transform="translate(204.889208, 149.709203)"><g><path d="M 9.703125 -0.152344 C 10.585938 -0.152344 11.316406 -1.398438 11.679688 -2.160156 C 11.773438 -2.433594 11.894531 -2.675781 12.015625 -2.921875 C 12.136719 -3.164062 12.257812 -3.40625 12.351562 -3.652344 L 12.410156 -3.800781 C 12.441406 -3.925781 12.320312 -4.015625 12.199219 -4.015625 C 12.046875 -4.015625 11.953125 -3.984375 11.925781 -3.925781 C 11.894531 -3.863281 11.832031 -3.800781 11.804688 -3.742188 C 11.742188 -3.652344 11.679688 -3.589844 11.652344 -3.5 C 11.558594 -3.347656 11.46875 -3.164062 11.378906 -2.980469 C 11.285156 -2.796875 11.195312 -2.617188 11.101562 -2.433594 C 10.859375 -1.917969 10.496094 -1.492188 10.097656 -1.035156 C 10.007812 -0.914062 9.855469 -0.820312 9.703125 -0.730469 C 9.671875 -0.699219 9.613281 -0.699219 9.582031 -0.699219 C 9.429688 -0.699219 9.339844 -0.761719 9.308594 -0.882812 C 9.09375 -1.277344 9.066406 -1.613281 9.035156 -2.070312 C 9.035156 -5.140625 9.765625 -8.183594 10.707031 -11.101562 C 11.101562 -12.351562 11.46875 -13.566406 11.832031 -14.816406 C 12.078125 -15.667969 12.320312 -16.519531 12.441406 -17.460938 C 12.441406 -17.550781 12.441406 -17.675781 12.472656 -17.796875 C 12.472656 -17.886719 12.472656 -18.007812 12.472656 -18.101562 C 12.441406 -18.464844 12.078125 -19.105469 11.621094 -19.105469 C 11.5 -19.105469 11.378906 -19.042969 11.285156 -18.953125 C 10.585938 -18.375 10.160156 -17.523438 9.703125 -16.761719 C 8.851562 -15.332031 8.214844 -13.8125 7.574219 -12.320312 C 7.210938 -11.5 6.875 -10.707031 6.539062 -9.886719 C 6.207031 -9.1875 5.933594 -8.578125 5.597656 -7.941406 L 5.382812 -7.664062 C 5.382812 -7.664062 5.382812 -7.664062 5.355469 -7.636719 L 5.324219 -7.636719 C 5.292969 -7.636719 5.292969 -7.636719 5.261719 -7.664062 C 5.261719 -7.695312 5.261719 -7.757812 5.261719 -7.789062 C 5.230469 -7.816406 5.230469 -7.847656 5.261719 -7.878906 C 5.414062 -8.609375 5.566406 -9.339844 5.6875 -10.070312 L 6.144531 -12.53125 C 6.207031 -12.867188 6.175781 -13.171875 6.085938 -13.445312 C 5.960938 -13.78125 5.75 -13.960938 5.414062 -14.054688 C 5.382812 -14.085938 5.292969 -14.085938 5.203125 -14.085938 C 4.988281 -14.085938 4.835938 -14.023438 4.714844 -13.871094 C 4.625 -13.78125 4.53125 -13.660156 4.472656 -13.566406 C 4.378906 -13.445312 4.320312 -13.324219 4.226562 -13.234375 C 3.011719 -11.285156 1.886719 -8.367188 1.308594 -6.175781 L 1.21875 -5.933594 C 1.1875 -5.902344 1.15625 -5.902344 1.09375 -5.902344 L 1.066406 -5.933594 C 1.035156 -6.113281 1.035156 -6.296875 1.09375 -6.480469 C 1.125 -6.660156 1.15625 -6.84375 1.1875 -6.996094 C 1.308594 -8.0625 1.460938 -9.035156 1.734375 -10.039062 C 2.21875 -12.078125 2.648438 -14.054688 3.042969 -16.121094 L 3.132812 -16.457031 C 3.164062 -16.792969 2.859375 -17.066406 2.523438 -17.035156 C 2.402344 -17.035156 2.3125 -16.972656 2.28125 -16.851562 C 2.039062 -16.394531 1.917969 -16.03125 1.792969 -15.574219 C 1.582031 -14.816406 1.398438 -14.054688 1.21875 -13.324219 C 1.035156 -12.5625 0.851562 -11.832031 0.640625 -11.074219 C 0.03125 -8.640625 -0.457031 -5.566406 -0.457031 -3.011719 C -0.457031 -2.796875 -0.425781 -2.675781 -0.394531 -2.585938 C -0.183594 -1.976562 0.121094 -1.945312 0.640625 -1.945312 C 0.730469 -1.945312 0.820312 -2.007812 0.851562 -2.097656 C 0.941406 -2.28125 1.003906 -2.464844 1.035156 -2.648438 C 1.21875 -3.316406 1.398438 -3.984375 1.613281 -4.683594 C 1.792969 -5.355469 1.976562 -6.023438 2.160156 -6.722656 C 2.554688 -8.183594 3.925781 -11.894531 4.957031 -12.929688 L 5.019531 -12.929688 C 5.050781 -12.929688 5.050781 -12.898438 5.050781 -12.867188 C 5.082031 -12.777344 5.082031 -12.683594 5.050781 -12.59375 C 5.019531 -12.382812 4.957031 -12.167969 4.898438 -11.984375 C 4.835938 -11.773438 4.777344 -11.558594 4.746094 -11.347656 C 4.472656 -10.28125 4.257812 -9.277344 4.046875 -8.214844 C 3.925781 -7.664062 3.894531 -7.117188 3.953125 -6.570312 C 4.015625 -6.113281 4.289062 -5.808594 4.746094 -5.65625 C 4.777344 -5.65625 4.804688 -5.65625 4.835938 -5.65625 C 4.867188 -5.628906 4.867188 -5.628906 4.898438 -5.628906 C 5.109375 -5.628906 5.261719 -5.71875 5.382812 -5.902344 L 5.628906 -6.328125 C 6.207031 -7.515625 6.722656 -8.609375 7.210938 -9.796875 C 7.847656 -11.347656 8.519531 -12.867188 9.21875 -14.359375 C 9.796875 -15.542969 10.34375 -16.699219 11.164062 -17.703125 C 11.195312 -17.734375 11.253906 -17.796875 11.378906 -17.886719 L 11.4375 -17.886719 C 11.46875 -17.855469 11.46875 -17.855469 11.46875 -17.824219 C 11.5 -17.550781 11.40625 -17.308594 11.316406 -17.066406 C 10.980469 -16 10.675781 -14.996094 10.3125 -13.992188 C 9.277344 -11.132812 7.816406 -6.417969 7.816406 -3.375 L 7.816406 -2.585938 C 7.816406 -2.007812 7.96875 -1.519531 8.214844 -1.003906 C 8.546875 -0.304688 9.09375 -0.152344 9.703125 -0.152344 Z M 9.703125 -0.152344 "/></g></g></g><g fill="#000000" fill-opacity="1"><g transform="translate(217.114222, 149.709203)"><g><path d="M 0.789062 -3.4375 C 1.1875 -3.4375 1.550781 -3.710938 1.824219 -3.953125 C 2.402344 -4.5625 2.921875 -5.203125 3.375 -5.902344 C 3.652344 -6.359375 3.925781 -6.8125 4.199219 -7.269531 C 4.472656 -7.695312 4.746094 -8.121094 5.019531 -8.578125 L 5.261719 -9.035156 C 5.355469 -9.15625 5.203125 -9.339844 5.050781 -9.371094 C 5.019531 -9.398438 4.957031 -9.398438 4.867188 -9.398438 C 4.746094 -9.398438 4.625 -9.339844 4.503906 -9.1875 C 4.410156 -9.066406 4.351562 -8.945312 4.289062 -8.851562 C 4.226562 -8.730469 4.167969 -8.609375 4.078125 -8.519531 L 2.949219 -6.601562 L 2.25 -5.597656 C 2.007812 -5.261719 1.703125 -4.988281 1.367188 -4.652344 C 1.339844 -4.625 1.308594 -4.625 1.277344 -4.59375 C 1.246094 -4.5625 1.21875 -4.5625 1.1875 -4.53125 C 1.15625 -4.503906 1.125 -4.503906 1.066406 -4.503906 C 0.972656 -4.53125 0.941406 -4.5625 0.941406 -4.652344 C 0.972656 -4.929688 1.003906 -5.171875 1.035156 -5.414062 C 1.066406 -5.65625 1.09375 -5.902344 1.125 -6.144531 C 1.277344 -6.964844 1.460938 -7.695312 1.671875 -8.519531 L 1.855469 -9.277344 C 1.886719 -9.460938 1.855469 -9.582031 1.703125 -9.644531 C 1.550781 -9.734375 1.460938 -9.765625 1.460938 -9.765625 L 1.367188 -9.765625 C 1.125 -9.765625 1.003906 -9.582031 0.914062 -9.371094 C 0.152344 -7.910156 -0.214844 -6.386719 -0.214844 -4.835938 C -0.214844 -4.714844 -0.214844 -4.59375 -0.214844 -4.472656 C -0.214844 -4.351562 -0.183594 -4.226562 -0.152344 -4.136719 C -0.0625 -3.679688 0.335938 -3.4375 0.789062 -3.4375 Z M 2.160156 -11.40625 C 2.25 -11.40625 2.34375 -11.40625 2.371094 -11.40625 C 2.402344 -11.40625 2.464844 -11.4375 2.554688 -11.46875 C 2.769531 -11.621094 2.859375 -12.015625 2.707031 -12.230469 C 2.617188 -12.320312 2.523438 -12.441406 2.433594 -12.59375 C 2.3125 -12.746094 2.160156 -12.808594 2.007812 -12.808594 C 1.855469 -12.808594 1.734375 -12.746094 1.671875 -12.625 C 1.582031 -12.441406 1.550781 -12.230469 1.550781 -11.984375 C 1.550781 -11.773438 1.644531 -11.589844 1.855469 -11.5 C 1.917969 -11.46875 1.976562 -11.4375 2.039062 -11.4375 C 2.070312 -11.4375 2.128906 -11.4375 2.160156 -11.40625 Z M 2.160156 -11.40625 "/></g></g></g><g fill="#000000" fill-opacity="1"><g transform="translate(221.189314, 149.709203)"><g><path d="M 1.125 -2.921875 C 1.703125 -2.921875 2.097656 -3.285156 2.464844 -3.652344 C 2.949219 -4.105469 3.347656 -4.59375 3.800781 -5.171875 L 6.296875 -8.488281 C 6.359375 -8.578125 6.417969 -8.640625 6.480469 -8.730469 C 6.539062 -8.820312 6.601562 -8.914062 6.660156 -9.003906 L 6.753906 -9.1875 C 6.785156 -9.277344 6.722656 -9.398438 6.632812 -9.429688 C 6.601562 -9.460938 6.511719 -9.460938 6.417969 -9.460938 C 6.328125 -9.460938 6.234375 -9.429688 6.175781 -9.371094 L 5.445312 -8.488281 C 4.683594 -7.421875 3.925781 -6.417969 3.101562 -5.414062 C 2.707031 -4.867188 2.21875 -4.351562 1.644531 -3.832031 C 1.519531 -3.742188 1.398438 -3.679688 1.246094 -3.589844 C 1.21875 -3.558594 1.1875 -3.558594 1.15625 -3.558594 C 1.09375 -3.558594 1.035156 -3.589844 1.003906 -3.679688 C 0.914062 -4.078125 0.851562 -4.472656 0.882812 -4.867188 C 1.15625 -7.757812 1.734375 -9.917969 3.527344 -12.230469 C 3.558594 -12.257812 3.621094 -12.320312 3.679688 -12.351562 C 3.710938 -12.382812 3.773438 -12.410156 3.800781 -12.441406 C 3.832031 -12.472656 3.832031 -12.472656 3.863281 -12.472656 C 3.953125 -12.472656 4.015625 -12.441406 4.015625 -12.351562 C 4.046875 -12.289062 4.046875 -12.230469 4.046875 -12.136719 C 4.078125 -11.558594 3.984375 -11.011719 3.800781 -10.433594 L 3.621094 -9.886719 C 3.589844 -9.796875 3.621094 -9.703125 3.773438 -9.671875 C 3.800781 -9.671875 3.832031 -9.671875 3.863281 -9.671875 C 3.894531 -9.644531 3.894531 -9.644531 3.925781 -9.644531 C 4.078125 -9.644531 4.226562 -9.734375 4.320312 -9.886719 C 4.714844 -10.585938 4.898438 -11.378906 4.835938 -12.230469 C 4.835938 -12.472656 4.746094 -12.65625 4.5625 -12.777344 C 4.226562 -13.050781 3.863281 -13.203125 3.5 -13.203125 C 3.222656 -13.203125 2.921875 -13.082031 2.648438 -12.867188 C 0.730469 -11.195312 -0.304688 -7.941406 -0.457031 -5.445312 C -0.457031 -4.746094 -0.457031 -4.257812 -0.242188 -3.742188 C -0.183594 -3.527344 -0.0625 -3.375 0.121094 -3.222656 C 0.457031 -3.011719 0.761719 -2.949219 1.125 -2.921875 Z M 1.125 -2.921875 "/></g></g></g><g fill="#000000" fill-opacity="1"><g transform="translate(226.724088, 149.709203)"><g><path d="M 4.289062 -1.671875 C 4.378906 -1.671875 4.53125 -1.703125 4.683594 -1.734375 C 4.957031 -1.824219 5.140625 -1.976562 5.355469 -2.128906 C 5.839844 -2.585938 6.207031 -3.074219 6.539062 -3.652344 C 7.058594 -4.53125 7.574219 -5.445312 8.0625 -6.359375 C 8.519531 -7.238281 9.003906 -8.152344 9.519531 -9.035156 C 9.550781 -9.066406 9.582031 -9.125 9.582031 -9.1875 C 9.582031 -9.21875 9.582031 -9.277344 9.613281 -9.308594 C 9.613281 -9.339844 9.582031 -9.398438 9.550781 -9.429688 C 9.460938 -9.492188 9.371094 -9.519531 9.21875 -9.519531 C 9.066406 -9.519531 8.972656 -9.492188 8.882812 -9.398438 C 8.425781 -8.820312 8.121094 -8.183594 7.789062 -7.542969 C 7.300781 -6.539062 5.597656 -3.347656 4.746094 -2.738281 C 4.625 -2.617188 4.53125 -2.585938 4.503906 -2.648438 C 4.472656 -2.675781 4.472656 -2.707031 4.441406 -2.738281 C 4.410156 -2.769531 4.410156 -2.796875 4.410156 -2.828125 L 4.410156 -3.195312 C 4.410156 -4.046875 4.53125 -4.898438 4.746094 -5.75 L 5.476562 -9.09375 C 5.566406 -9.460938 5.597656 -9.824219 5.566406 -10.222656 C 5.566406 -10.675781 5.355469 -10.953125 4.898438 -11.042969 C 4.199219 -11.042969 3.984375 -10.953125 3.5 -10.34375 C 3.164062 -9.976562 2.921875 -9.582031 2.675781 -9.1875 L 2.128906 -8.242188 C 2.039062 -8.089844 1.945312 -7.96875 1.855469 -7.941406 L 1.855469 -7.910156 C 1.824219 -8.089844 1.824219 -8.273438 1.886719 -8.425781 C 2.039062 -8.914062 2.160156 -9.398438 2.3125 -9.886719 C 2.464844 -10.375 2.585938 -10.859375 2.738281 -11.378906 C 2.828125 -11.679688 2.980469 -11.925781 3.222656 -12.136719 C 4.503906 -13.261719 6.996094 -15.542969 6.996094 -17.277344 C 6.996094 -17.855469 6.207031 -18.128906 5.75 -18.128906 C 5.292969 -18.128906 4.867188 -17.949219 4.53125 -17.613281 C 4.199219 -17.277344 3.925781 -16.945312 3.652344 -16.578125 C 2.070312 -13.992188 0.882812 -10.191406 0.242188 -7.210938 C 0.121094 -6.632812 0 -6.085938 0.03125 -5.507812 C 0.03125 -5.230469 0.0898438 -5.019531 0.488281 -4.867188 C 0.699219 -4.835938 0.789062 -4.804688 1.003906 -4.804688 C 1.15625 -4.804688 1.308594 -4.898438 1.398438 -5.050781 C 1.492188 -5.171875 1.550781 -5.292969 1.613281 -5.445312 C 1.671875 -5.566406 1.734375 -5.6875 1.792969 -5.808594 C 2.070312 -6.265625 2.3125 -6.753906 2.554688 -7.238281 C 2.796875 -7.726562 3.042969 -8.214844 3.316406 -8.667969 C 3.558594 -9.15625 3.863281 -9.582031 4.257812 -9.976562 C 4.320312 -9.976562 4.351562 -9.976562 4.378906 -9.949219 C 4.410156 -9.949219 4.410156 -9.917969 4.410156 -9.886719 C 4.410156 -9.765625 4.378906 -9.671875 4.351562 -9.550781 C 4.257812 -9.125 4.136719 -8.699219 4.015625 -8.273438 C 3.894531 -7.847656 3.773438 -7.421875 3.679688 -6.996094 C 3.347656 -5.6875 3.132812 -4.378906 3.164062 -3.042969 C 3.164062 -2.949219 3.164062 -2.859375 3.164062 -2.769531 C 3.164062 -2.675781 3.164062 -2.554688 3.195312 -2.464844 C 3.222656 -2.191406 3.375 -2.007812 3.652344 -1.855469 C 3.863281 -1.734375 4.078125 -1.671875 4.289062 -1.671875 Z M 3.679688 -13.660156 C 3.589844 -13.660156 3.589844 -13.71875 3.621094 -13.839844 C 4.015625 -14.90625 4.503906 -15.820312 5.140625 -16.761719 C 5.230469 -16.851562 5.355469 -16.972656 5.445312 -17.066406 C 5.535156 -17.15625 5.628906 -17.277344 5.71875 -17.371094 C 5.78125 -17.398438 5.871094 -17.460938 5.992188 -17.492188 C 6.023438 -17.523438 6.144531 -17.492188 6.144531 -17.398438 C 6.175781 -17.371094 6.175781 -17.339844 6.175781 -17.25 C 6.175781 -16.214844 4.503906 -14.417969 3.800781 -13.71875 C 3.773438 -13.6875 3.773438 -13.6875 3.742188 -13.6875 C 3.710938 -13.6875 3.710938 -13.6875 3.679688 -13.660156 Z M 3.679688 -13.660156 "/></g></g></g><g fill="#000000" fill-opacity="1"><g transform="translate(235.117425, 149.709203)"><g><path d="M 4.835938 -2.890625 C 5.140625 -2.890625 5.414062 -3.011719 5.6875 -3.253906 C 5.933594 -3.46875 6.144531 -3.679688 6.359375 -3.925781 C 6.660156 -4.320312 6.964844 -4.777344 7.300781 -5.230469 L 8.578125 -7.238281 C 8.730469 -7.453125 8.851562 -7.695312 9.003906 -7.941406 C 9.125 -8.183594 9.246094 -8.425781 9.398438 -8.667969 C 9.492188 -8.820312 9.519531 -8.972656 9.550781 -9.066406 C 9.550781 -9.066406 9.550781 -9.09375 9.550781 -9.1875 C 9.519531 -9.339844 9.398438 -9.398438 9.1875 -9.398438 C 9.09375 -9.398438 9.035156 -9.371094 9.003906 -9.308594 C 8.882812 -9.1875 8.792969 -9.035156 8.730469 -8.882812 C 8.089844 -7.664062 6.449219 -5.082031 5.476562 -4.105469 C 5.382812 -4.015625 5.292969 -3.953125 5.203125 -3.894531 C 5.109375 -3.800781 5.019531 -3.742188 4.898438 -3.679688 C 4.867188 -3.679688 4.867188 -3.679688 4.867188 -3.679688 C 4.867188 -3.652344 4.867188 -3.652344 4.835938 -3.652344 C 4.746094 -3.652344 4.683594 -3.710938 4.625 -3.800781 C 4.53125 -4.136719 4.625 -4.472656 4.652344 -4.804688 C 4.867188 -5.808594 5.050781 -6.753906 5.414062 -7.695312 C 5.65625 -8.273438 5.902344 -8.851562 6.113281 -9.429688 C 6.265625 -9.644531 6.753906 -11.011719 6.753906 -11.164062 C 6.785156 -11.316406 6.722656 -11.40625 6.601562 -11.46875 C 6.511719 -11.558594 6.417969 -11.589844 6.296875 -11.589844 C 6.144531 -11.589844 6.023438 -11.527344 5.933594 -11.378906 C 5.808594 -11.164062 5.6875 -11.011719 5.566406 -10.859375 L 4.652344 -9.550781 C 4.5625 -9.460938 4.503906 -9.398438 4.441406 -9.371094 C 4.441406 -9.371094 4.410156 -9.371094 4.320312 -9.371094 L 4.167969 -9.703125 C 3.800781 -10.28125 3.285156 -10.554688 2.648438 -10.554688 C 2.25 -10.554688 1.855469 -10.433594 1.492188 -10.160156 C 1.246094 -9.949219 1.035156 -9.734375 0.820312 -9.398438 C 0.699219 -9.1875 0.578125 -9.003906 0.457031 -8.820312 C 0.335938 -8.609375 0.214844 -8.394531 0.0898438 -8.183594 C -0.273438 -7.484375 -0.457031 -6.722656 -0.457031 -5.902344 C -0.363281 -5.171875 0.183594 -4.777344 0.882812 -4.683594 L 1.066406 -4.683594 C 1.277344 -4.683594 1.460938 -4.746094 1.582031 -4.835938 C 2.160156 -5.324219 2.617188 -5.78125 3.101562 -6.359375 C 3.195312 -6.449219 3.253906 -6.511719 3.347656 -6.601562 L 3.40625 -6.601562 C 3.46875 -6.539062 3.5 -6.511719 3.5 -6.511719 C 3.5 -6.480469 3.5 -6.417969 3.5 -6.386719 C 3.46875 -6.328125 3.46875 -6.265625 3.46875 -6.234375 C 3.4375 -5.992188 3.375 -5.75 3.347656 -5.507812 C 3.285156 -5.261719 3.253906 -5.019531 3.222656 -4.746094 C 3.222656 -3.800781 3.773438 -2.890625 4.835938 -2.890625 Z M 1.066406 -5.71875 C 0.972656 -5.75 0.941406 -5.871094 0.941406 -6.023438 C 1.09375 -7.117188 2.21875 -9.976562 3.195312 -9.976562 C 3.316406 -9.976562 3.40625 -9.917969 3.46875 -9.796875 C 3.558594 -9.671875 3.589844 -9.582031 3.621094 -9.519531 C 3.652344 -9.308594 3.773438 -9.15625 4.015625 -9.066406 C 4.105469 -9.035156 4.136719 -8.945312 4.105469 -8.820312 C 4.105469 -8.820312 4.078125 -8.792969 4.046875 -8.761719 C 3.347656 -7.816406 2.675781 -6.996094 1.824219 -6.175781 C 1.734375 -6.085938 1.644531 -6.023438 1.550781 -5.960938 C 1.460938 -5.902344 1.339844 -5.839844 1.246094 -5.75 C 1.21875 -5.71875 1.15625 -5.71875 1.066406 -5.71875 Z M 1.066406 -5.71875 "/></g></g></g><g fill="#000000" fill-opacity="1"><g transform="translate(243.449937, 149.709203)"><g><path d="M 4.257812 -1.644531 C 4.472656 -1.644531 4.683594 -1.703125 4.867188 -1.792969 C 5.082031 -1.945312 5.292969 -2.128906 5.445312 -2.34375 L 5.992188 -3.164062 C 6.386719 -3.863281 6.8125 -4.5625 7.210938 -5.261719 C 7.605469 -5.933594 8 -6.632812 8.394531 -7.332031 C 8.546875 -7.605469 8.699219 -7.878906 8.820312 -8.152344 C 8.945312 -8.425781 9.066406 -8.730469 9.21875 -9.003906 C 9.308594 -9.15625 9.21875 -9.277344 9.003906 -9.308594 C 8.972656 -9.339844 8.914062 -9.339844 8.851562 -9.339844 C 8.730469 -9.339844 8.640625 -9.277344 8.578125 -9.1875 L 8.273438 -8.609375 C 7.332031 -6.785156 6.296875 -5.050781 5.109375 -3.347656 C 4.988281 -3.195312 4.867188 -3.042969 4.714844 -2.921875 C 4.714844 -2.890625 4.683594 -2.890625 4.59375 -2.890625 C 4.59375 -2.921875 4.59375 -2.921875 4.5625 -2.949219 C 4.472656 -3.195312 4.5625 -3.4375 4.59375 -3.679688 C 4.835938 -4.898438 5.109375 -6.085938 5.445312 -7.300781 L 6.175781 -10.128906 C 6.234375 -10.433594 6.265625 -10.738281 6.265625 -11.042969 C 6.234375 -11.316406 6.113281 -11.5 5.933594 -11.589844 L 5.75 -11.679688 C 5.6875 -11.710938 5.597656 -11.742188 5.476562 -11.742188 C 5.082031 -11.742188 4.472656 -10.828125 4.289062 -10.464844 L 2.828125 -7.757812 C 2.433594 -7.058594 1.976562 -6.386719 1.519531 -5.6875 C 1.492188 -5.65625 1.460938 -5.628906 1.367188 -5.597656 C 1.277344 -5.566406 1.246094 -5.628906 1.246094 -5.808594 C 1.246094 -5.960938 1.246094 -6.085938 1.277344 -6.175781 C 1.367188 -6.570312 1.429688 -6.996094 1.519531 -7.421875 C 1.582031 -7.847656 1.671875 -8.273438 1.765625 -8.699219 C 1.792969 -8.914062 1.855469 -9.125 1.917969 -9.339844 C 1.945312 -9.519531 2.007812 -9.734375 2.039062 -9.949219 C 2.070312 -10.128906 1.976562 -10.25 1.824219 -10.34375 L 1.644531 -10.433594 L 1.582031 -10.433594 C 1.367188 -10.433594 1.246094 -10.28125 1.15625 -10.070312 L 0.882812 -9.339844 C 0.425781 -7.96875 0.183594 -6.570312 0.0625 -5.140625 C 0 -4.683594 0.183594 -4.378906 0.578125 -4.199219 L 0.699219 -4.167969 C 0.851562 -4.105469 1.003906 -4.078125 1.09375 -4.078125 C 1.339844 -4.078125 1.519531 -4.167969 1.671875 -4.378906 C 1.824219 -4.53125 1.945312 -4.683594 2.039062 -4.898438 C 2.523438 -5.71875 3.011719 -6.570312 3.46875 -7.390625 L 4.714844 -9.644531 C 4.746094 -9.734375 4.804688 -9.796875 4.835938 -9.824219 L 4.957031 -9.824219 C 4.957031 -9.824219 4.957031 -9.796875 4.988281 -9.765625 L 4.804688 -9.09375 C 4.410156 -7.847656 4.015625 -6.632812 3.679688 -5.324219 C 3.40625 -4.257812 3.285156 -3.4375 3.285156 -2.371094 C 3.316406 -2.160156 3.40625 -2.039062 3.558594 -1.945312 C 3.773438 -1.765625 3.984375 -1.671875 4.257812 -1.644531 Z M 4.257812 -1.644531 "/></g></g></g><g fill="#000000" fill-opacity="1"><g transform="translate(251.478345, 149.709203)"><g><path d="M 0.0625 1.035156 C 0.578125 1.035156 0.914062 0.972656 1.246094 0.515625 L 1.429688 0.304688 C 2.007812 -0.515625 2.554688 -1.308594 3.011719 -2.160156 C 3.164062 -2.496094 3.316406 -2.769531 3.527344 -3.101562 L 4.53125 -4.835938 C 4.867188 -5.476562 5.230469 -6.085938 5.566406 -6.722656 C 5.902344 -7.332031 6.265625 -7.96875 6.601562 -8.609375 C 6.660156 -8.699219 6.722656 -8.820312 6.8125 -8.972656 C 6.84375 -9.125 6.8125 -9.21875 6.691406 -9.277344 C 6.601562 -9.339844 6.539062 -9.371094 6.449219 -9.371094 C 6.386719 -9.371094 6.328125 -9.339844 6.296875 -9.308594 L 6.085938 -9.035156 L 5.082031 -7.210938 C 4.835938 -6.8125 4.625 -6.417969 4.378906 -5.960938 C 3.925781 -5.203125 3.5 -4.410156 3.074219 -3.652344 C 2.617188 -2.859375 2.160156 -2.070312 1.703125 -1.308594 C 1.460938 -0.914062 1.15625 -0.515625 0.882812 -0.152344 C 0.851562 -0.0898438 0.789062 -0.03125 0.761719 0.0625 C 0.730469 0.121094 0.667969 0.152344 0.578125 0.121094 C 0.488281 0.0898438 0.425781 0.03125 0.425781 -0.0625 C 0.394531 -0.152344 0.394531 -0.214844 0.363281 -0.304688 C 0.363281 -3.195312 1.125 -5.992188 1.945312 -8.699219 C 2.039062 -8.882812 3.074219 -12.257812 3.222656 -12.410156 C 3.285156 -12.503906 3.347656 -12.5625 3.4375 -12.625 C 4.015625 -12.929688 7.085938 -13.386719 7.847656 -13.476562 C 8.578125 -13.566406 9.371094 -13.660156 10.070312 -13.902344 C 10.128906 -13.933594 10.191406 -13.992188 10.222656 -14.085938 C 10.28125 -14.238281 10.25 -14.417969 10.097656 -14.601562 C 10.039062 -14.664062 9.976562 -14.691406 9.886719 -14.691406 L 8.273438 -14.386719 C 7.878906 -14.328125 7.515625 -14.265625 7.117188 -14.207031 C 6.722656 -14.144531 6.359375 -14.085938 5.960938 -13.992188 C 5.628906 -13.960938 5.324219 -13.902344 5.019531 -13.839844 C 4.683594 -13.75 4.378906 -13.6875 4.078125 -13.660156 C 4.015625 -13.628906 3.953125 -13.628906 3.863281 -13.628906 C 3.800781 -13.6875 3.773438 -13.71875 3.773438 -13.75 C 3.773438 -13.8125 3.800781 -13.933594 3.832031 -14.085938 C 3.953125 -14.417969 4.078125 -14.785156 4.199219 -15.117188 C 4.289062 -15.453125 4.410156 -15.789062 4.53125 -16.121094 C 4.5625 -16.273438 4.59375 -16.425781 4.59375 -16.546875 C 4.625 -16.609375 4.59375 -16.671875 4.53125 -16.730469 C 4.441406 -16.882812 4.289062 -16.972656 4.136719 -16.972656 C 3.742188 -16.972656 3.46875 -16.09375 3.253906 -15.789062 C 2.921875 -15.148438 2.648438 -14.539062 2.371094 -13.839844 C 1.976562 -13.082031 2.160156 -13.261719 1.339844 -13.019531 C 1.308594 -12.988281 1.277344 -12.988281 1.21875 -12.988281 C 0.820312 -12.898438 0.457031 -12.777344 0.0898438 -12.683594 C -0.273438 -12.59375 -0.640625 -12.472656 -1.003906 -12.382812 C -1.066406 -12.351562 -1.125 -12.351562 -1.1875 -12.320312 C -1.246094 -12.289062 -1.308594 -12.230469 -1.398438 -12.199219 C -1.429688 -12.167969 -1.429688 -12.136719 -1.429688 -12.078125 C -1.398438 -11.925781 -1.246094 -11.742188 -1.125 -11.742188 C -1.035156 -11.710938 -0.972656 -11.710938 -0.914062 -11.710938 C -0.820312 -11.710938 -0.761719 -11.710938 -0.699219 -11.710938 C -0.488281 -11.742188 -0.304688 -11.804688 -0.121094 -11.832031 C 0.0625 -11.863281 0.242188 -11.925781 0.425781 -11.953125 C 0.578125 -11.984375 0.730469 -12.046875 0.882812 -12.078125 C 1.035156 -12.105469 1.1875 -12.136719 1.339844 -12.167969 L 1.398438 -12.167969 C 1.613281 -12.167969 1.703125 -12.078125 1.613281 -11.894531 C 1.582031 -11.742188 1.519531 -11.589844 1.460938 -11.4375 C 1.398438 -11.285156 1.339844 -11.164062 1.308594 -11.011719 C 0.183594 -7.726562 -0.578125 -4.503906 -0.914062 -1.066406 C -0.914062 -0.667969 -0.882812 -0.304688 -0.789062 0.0898438 C -0.667969 0.546875 -0.457031 0.941406 0.0625 1.035156 Z M 0.0625 1.035156 "/></g></g></g></svg>